<?xml version="1.0" encoding="utf-8" standalone="no"?>
<!DOCTYPE svg PUBLIC "-//W3C//DTD SVG 1.1//EN"
  "http://www.w3.org/Graphics/SVG/1.1/DTD/svg11.dtd">
<svg xmlns:xlink="http://www.w3.org/1999/xlink" width="432pt" height="216pt" viewBox="0 0 432 216" xmlns="http://www.w3.org/2000/svg" version="1.1">
 <metadata>
  <rdf:RDF xmlns:dc="http://purl.org/dc/elements/1.1/" xmlns:cc="http://creativecommons.org/ns#" xmlns:rdf="http://www.w3.org/1999/02/22-rdf-syntax-ns#">
   <cc:Work>
    <dc:type rdf:resource="http://purl.org/dc/dcmitype/StillImage"/>
    <dc:date>2025-04-23T17:14:56.718716</dc:date>
    <dc:format>image/svg+xml</dc:format>
    <dc:creator>
     <cc:Agent>
      <dc:title>Matplotlib v3.9.4, https://matplotlib.org/</dc:title>
     </cc:Agent>
    </dc:creator>
   </cc:Work>
  </rdf:RDF>
 </metadata>
 <defs>
  <style type="text/css">*{stroke-linejoin: round; stroke-linecap: butt}</style>
 </defs>
 <g id="figure_1">
  <g id="patch_1">
   <path d="M 0 216 
L 432 216 
L 432 0 
L 0 0 
z
" style="fill: #ffffff"/>
  </g>
  <g id="axes_1">
   <g id="patch_2">
    <path d="M 54 192.24 
L 388.8 192.24 
L 388.8 25.92 
L 54 25.92 
z
" style="fill: #ffffff"/>
   </g>
   <g id="PolyCollection_1">
    <defs>
     <path id="m5964eedcda" d="M 69.218182 -23.76 
L 69.218182 -23.76 
L 85.237321 -23.76 
L 101.256459 -23.76 
L 117.275598 -23.76 
L 133.294737 -23.76 
L 149.313876 -23.76 
L 165.333014 -23.76 
L 181.352153 -23.76 
L 197.371292 -23.76 
L 213.390431 -23.76 
L 229.409569 -23.76 
L 245.428708 -23.76 
L 261.447847 -23.76 
L 277.466986 -23.76 
L 293.486124 -23.76 
L 309.505263 -23.76 
L 325.524402 -23.76 
L 341.543541 -23.76 
L 357.562679 -23.76 
L 373.581818 -23.76 
L 373.581818 -23.76 
L 373.581818 -23.76 
L 357.562679 -23.76 
L 341.543541 -25.607527 
L 325.524402 -28.541711 
L 309.505263 -26.532578 
L 293.486124 -25.117411 
L 277.466986 -23.76 
L 261.447847 -23.76 
L 245.428708 -23.76 
L 229.409569 -23.76 
L 213.390431 -23.76 
L 197.371292 -23.76 
L 181.352153 -23.76 
L 165.333014 -23.76 
L 149.313876 -23.76 
L 133.294737 -23.76 
L 117.275598 -23.76 
L 101.256459 -23.76 
L 85.237321 -23.76 
L 69.218182 -23.76 
z
" style="stroke: #1f77b4"/>
    </defs>
    <g clip-path="url(#p2af9b15bd3)">
     <use xlink:href="#m5964eedcda" x="0" y="216" style="fill: #1f77b4; stroke: #1f77b4"/>
    </g>
   </g>
   <g id="PolyCollection_2">
    <defs>
     <path id="m5a965acfd5" d="M 69.218182 -28.072852 
L 69.218182 -23.76 
L 85.237321 -23.76 
L 101.256459 -23.76 
L 117.275598 -23.76 
L 133.294737 -23.76 
L 149.313876 -23.76 
L 165.333014 -23.76 
L 181.352153 -23.76 
L 197.371292 -23.76 
L 213.390431 -23.76 
L 229.409569 -23.76 
L 245.428708 -23.76 
L 261.447847 -23.76 
L 277.466986 -23.76 
L 293.486124 -25.117411 
L 309.505263 -26.532578 
L 325.524402 -28.541711 
L 341.543541 -25.607527 
L 357.562679 -23.76 
L 373.581818 -23.76 
L 373.581818 -23.76 
L 373.581818 -23.76 
L 357.562679 -26.128474 
L 341.543541 -30.274369 
L 325.524402 -38.962798 
L 309.505263 -26.532578 
L 293.486124 -25.117411 
L 277.466986 -23.76 
L 261.447847 -23.76 
L 245.428708 -23.76 
L 229.409569 -23.76 
L 213.390431 -23.76 
L 197.371292 -23.76 
L 181.352153 -23.76 
L 165.333014 -23.76 
L 149.313876 -23.76 
L 133.294737 -23.76 
L 117.275598 -28.471768 
L 101.256459 -26.962441 
L 85.237321 -26.194138 
L 69.218182 -28.072852 
z
" style="stroke: #ff7f0e"/>
    </defs>
    <g clip-path="url(#p2af9b15bd3)">
     <use xlink:href="#m5a965acfd5" x="0" y="216" style="fill: #ff7f0e; stroke: #ff7f0e"/>
    </g>
   </g>
   <g id="PolyCollection_3">
    <defs>
     <path id="m8f863e2144" d="M 69.218182 -32.970495 
L 69.218182 -28.072852 
L 85.237321 -26.194138 
L 101.256459 -26.962441 
L 117.275598 -28.471768 
L 133.294737 -23.76 
L 149.313876 -23.76 
L 165.333014 -23.76 
L 181.352153 -23.76 
L 197.371292 -23.76 
L 213.390431 -23.76 
L 229.409569 -23.76 
L 245.428708 -23.76 
L 261.447847 -23.76 
L 277.466986 -23.76 
L 293.486124 -25.117411 
L 309.505263 -26.532578 
L 325.524402 -38.962798 
L 341.543541 -30.274369 
L 357.562679 -26.128474 
L 373.581818 -23.76 
L 373.581818 -23.76 
L 373.581818 -23.76 
L 357.562679 -26.128474 
L 341.543541 -30.274369 
L 325.524402 -39.501478 
L 309.505263 -26.532578 
L 293.486124 -25.117411 
L 277.466986 -24.661429 
L 261.447847 -23.76 
L 245.428708 -23.76 
L 229.409569 -23.76 
L 213.390431 -23.76 
L 197.371292 -23.76 
L 181.352153 -23.76 
L 165.333014 -23.76 
L 149.313876 -23.76 
L 133.294737 -30.807154 
L 117.275598 -47.26543 
L 101.256459 -42.225188 
L 85.237321 -36.798637 
L 69.218182 -32.970495 
z
" style="stroke: #2ca02c"/>
    </defs>
    <g clip-path="url(#p2af9b15bd3)">
     <use xlink:href="#m8f863e2144" x="0" y="216" style="fill: #2ca02c; stroke: #2ca02c"/>
    </g>
   </g>
   <g id="PolyCollection_4">
    <defs>
     <path id="me023984e31" d="M 69.218182 -32.970495 
L 69.218182 -32.970495 
L 85.237321 -36.798637 
L 101.256459 -42.225188 
L 117.275598 -47.26543 
L 133.294737 -30.807154 
L 149.313876 -23.76 
L 165.333014 -23.76 
L 181.352153 -23.76 
L 197.371292 -23.76 
L 213.390431 -23.76 
L 229.409569 -23.76 
L 245.428708 -23.76 
L 261.447847 -23.76 
L 277.466986 -24.661429 
L 293.486124 -25.117411 
L 309.505263 -26.532578 
L 325.524402 -39.501478 
L 341.543541 -30.274369 
L 357.562679 -26.128474 
L 373.581818 -23.76 
L 373.581818 -36.263988 
L 373.581818 -36.263988 
L 357.562679 -35.813227 
L 341.543541 -53.372031 
L 325.524402 -50.704862 
L 309.505263 -51.036348 
L 293.486124 -51.422212 
L 277.466986 -56.020683 
L 261.447847 -64.255612 
L 245.428708 -54.51513 
L 229.409569 -46.766324 
L 213.390431 -65.715526 
L 197.371292 -61.981374 
L 181.352153 -34.802244 
L 165.333014 -33.828221 
L 149.313876 -23.76 
L 133.294737 -30.807154 
L 117.275598 -48.202554 
L 101.256459 -42.225188 
L 85.237321 -36.948178 
L 69.218182 -32.970495 
z
" style="stroke: #d62728"/>
    </defs>
    <g clip-path="url(#p2af9b15bd3)">
     <use xlink:href="#me023984e31" x="0" y="216" style="fill: #d62728; stroke: #d62728"/>
    </g>
   </g>
   <g id="PolyCollection_5">
    <defs>
     <path id="m6aa9d88a11" d="M 69.218182 -35.505445 
L 69.218182 -32.970495 
L 85.237321 -36.948178 
L 101.256459 -42.225188 
L 117.275598 -48.202554 
L 133.294737 -30.807154 
L 149.313876 -23.76 
L 165.333014 -33.828221 
L 181.352153 -34.802244 
L 197.371292 -61.981374 
L 213.390431 -65.715526 
L 229.409569 -46.766324 
L 245.428708 -54.51513 
L 261.447847 -64.255612 
L 277.466986 -56.020683 
L 293.486124 -51.422212 
L 309.505263 -51.036348 
L 325.524402 -50.704862 
L 341.543541 -53.372031 
L 357.562679 -35.813227 
L 373.581818 -36.263988 
L 373.581818 -36.263988 
L 373.581818 -36.263988 
L 357.562679 -35.813227 
L 341.543541 -53.372031 
L 325.524402 -50.704862 
L 309.505263 -52.440298 
L 293.486124 -58.279871 
L 277.466986 -59.936366 
L 261.447847 -64.255612 
L 245.428708 -56.436565 
L 229.409569 -48.768397 
L 213.390431 -68.507909 
L 197.371292 -64.612349 
L 181.352153 -35.068545 
L 165.333014 -33.828221 
L 149.313876 -27.294578 
L 133.294737 -38.720075 
L 117.275598 -68.012007 
L 101.256459 -56.260001 
L 85.237321 -36.948178 
L 69.218182 -35.505445 
z
" style="stroke: #9467bd"/>
    </defs>
    <g clip-path="url(#p2af9b15bd3)">
     <use xlink:href="#m6aa9d88a11" x="0" y="216" style="fill: #9467bd; stroke: #9467bd"/>
    </g>
   </g>
   <g id="PolyCollection_6">
    <defs>
     <path id="m55f4731401" d="M 69.218182 -63.036064 
L 69.218182 -35.505445 
L 85.237321 -36.948178 
L 101.256459 -56.260001 
L 117.275598 -68.012007 
L 133.294737 -38.720075 
L 149.313876 -27.294578 
L 165.333014 -33.828221 
L 181.352153 -35.068545 
L 197.371292 -64.612349 
L 213.390431 -68.507909 
L 229.409569 -48.768397 
L 245.428708 -56.436565 
L 261.447847 -64.255612 
L 277.466986 -59.936366 
L 293.486124 -58.279871 
L 309.505263 -52.440298 
L 325.524402 -50.704862 
L 341.543541 -53.372031 
L 357.562679 -35.813227 
L 373.581818 -36.263988 
L 373.581818 -50.415842 
L 373.581818 -50.415842 
L 357.562679 -45.092721 
L 341.543541 -70.192108 
L 325.524402 -75.624623 
L 309.505263 -68.875631 
L 293.486124 -69.292614 
L 277.466986 -68.621341 
L 261.447847 -72.044445 
L 245.428708 -73.075156 
L 229.409569 -68.84373 
L 213.390431 -68.507909 
L 197.371292 -64.612349 
L 181.352153 -35.60571 
L 165.333014 -33.828221 
L 149.313876 -28.945288 
L 133.294737 -41.197084 
L 117.275598 -94.992699 
L 101.256459 -100.808348 
L 85.237321 -68.751795 
L 69.218182 -63.036064 
z
" style="stroke: #8c564b"/>
    </defs>
    <g clip-path="url(#p2af9b15bd3)">
     <use xlink:href="#m55f4731401" x="0" y="216" style="fill: #8c564b; stroke: #8c564b"/>
    </g>
   </g>
   <g id="PolyCollection_7">
    <defs>
     <path id="mdb56960155" d="M 69.218182 -70.255366 
L 69.218182 -63.036064 
L 85.237321 -68.751795 
L 101.256459 -100.808348 
L 117.275598 -94.992699 
L 133.294737 -41.197084 
L 149.313876 -28.945288 
L 165.333014 -33.828221 
L 181.352153 -35.60571 
L 197.371292 -64.612349 
L 213.390431 -68.507909 
L 229.409569 -68.84373 
L 245.428708 -73.075156 
L 261.447847 -72.044445 
L 277.466986 -68.621341 
L 293.486124 -69.292614 
L 309.505263 -68.875631 
L 325.524402 -75.624623 
L 341.543541 -70.192108 
L 357.562679 -45.092721 
L 373.581818 -50.415842 
L 373.581818 -67.982355 
L 373.581818 -67.982355 
L 357.562679 -60.801454 
L 341.543541 -71.734802 
L 325.524402 -82.705644 
L 309.505263 -77.33816 
L 293.486124 -80.497959 
L 277.466986 -78.588779 
L 261.447847 -81.910088 
L 245.428708 -85.827961 
L 229.409569 -77.412234 
L 213.390431 -80.057345 
L 197.371292 -99.619979 
L 181.352153 -72.157852 
L 165.333014 -74.336968 
L 149.313876 -66.623023 
L 133.294737 -77.579332 
L 117.275598 -123.368662 
L 101.256459 -117.846754 
L 85.237321 -83.69258 
L 69.218182 -70.255366 
z
" style="stroke: #e377c2"/>
    </defs>
    <g clip-path="url(#p2af9b15bd3)">
     <use xlink:href="#mdb56960155" x="0" y="216" style="fill: #e377c2; stroke: #e377c2"/>
    </g>
   </g>
   <g id="PolyCollection_8">
    <defs>
     <path id="m87ebb3c676" d="M 69.218182 -74.96146 
L 69.218182 -70.255366 
L 85.237321 -83.69258 
L 101.256459 -117.846754 
L 117.275598 -123.368662 
L 133.294737 -77.579332 
L 149.313876 -66.623023 
L 165.333014 -74.336968 
L 181.352153 -72.157852 
L 197.371292 -99.619979 
L 213.390431 -80.057345 
L 229.409569 -77.412234 
L 245.428708 -85.827961 
L 261.447847 -81.910088 
L 277.466986 -78.588779 
L 293.486124 -80.497959 
L 309.505263 -77.33816 
L 325.524402 -82.705644 
L 341.543541 -71.734802 
L 357.562679 -60.801454 
L 373.581818 -67.982355 
L 373.581818 -67.982355 
L 373.581818 -67.982355 
L 357.562679 -60.801454 
L 341.543541 -71.734802 
L 325.524402 -82.705644 
L 309.505263 -77.33816 
L 293.486124 -80.497959 
L 277.466986 -78.588779 
L 261.447847 -81.910088 
L 245.428708 -85.827961 
L 229.409569 -77.412234 
L 213.390431 -80.057345 
L 197.371292 -99.619979 
L 181.352153 -72.157852 
L 165.333014 -74.336968 
L 149.313876 -66.623023 
L 133.294737 -77.579332 
L 117.275598 -123.368662 
L 101.256459 -117.846754 
L 85.237321 -83.69258 
L 69.218182 -74.96146 
z
" style="stroke: #7f7f7f"/>
    </defs>
    <g clip-path="url(#p2af9b15bd3)">
     <use xlink:href="#m87ebb3c676" x="0" y="216" style="fill: #7f7f7f; stroke: #7f7f7f"/>
    </g>
   </g>
   <g id="PolyCollection_9">
    <defs>
     <path id="m6c82232582" d="M 69.218182 -98.724627 
L 69.218182 -74.96146 
L 85.237321 -83.69258 
L 101.256459 -117.846754 
L 117.275598 -123.368662 
L 133.294737 -77.579332 
L 149.313876 -66.623023 
L 165.333014 -74.336968 
L 181.352153 -72.157852 
L 197.371292 -99.619979 
L 213.390431 -80.057345 
L 229.409569 -77.412234 
L 245.428708 -85.827961 
L 261.447847 -81.910088 
L 277.466986 -78.588779 
L 293.486124 -80.497959 
L 309.505263 -77.33816 
L 325.524402 -82.705644 
L 341.543541 -71.734802 
L 357.562679 -60.801454 
L 373.581818 -67.982355 
L 373.581818 -110.118696 
L 373.581818 -110.118696 
L 357.562679 -100.710577 
L 341.543541 -118.647655 
L 325.524402 -116.159476 
L 309.505263 -107.383839 
L 293.486124 -104.421825 
L 277.466986 -87.636585 
L 261.447847 -81.910088 
L 245.428708 -85.827961 
L 229.409569 -77.412234 
L 213.390431 -80.057345 
L 197.371292 -99.619979 
L 181.352153 -72.157852 
L 165.333014 -74.336968 
L 149.313876 -66.623023 
L 133.294737 -79.200363 
L 117.275598 -126.212824 
L 101.256459 -121.551753 
L 85.237321 -103.032749 
L 69.218182 -98.724627 
z
" style="stroke: #bcbd22"/>
    </defs>
    <g clip-path="url(#p2af9b15bd3)">
     <use xlink:href="#m6c82232582" x="0" y="216" style="fill: #bcbd22; stroke: #bcbd22"/>
    </g>
   </g>
   <g id="PolyCollection_10">
    <defs>
     <path id="m8538077dfc" d="M 69.218182 -103.975032 
L 69.218182 -98.724627 
L 85.237321 -103.032749 
L 101.256459 -121.551753 
L 117.275598 -126.212824 
L 133.294737 -79.200363 
L 149.313876 -66.623023 
L 165.333014 -74.336968 
L 181.352153 -72.157852 
L 197.371292 -99.619979 
L 213.390431 -80.057345 
L 229.409569 -77.412234 
L 245.428708 -85.827961 
L 261.447847 -81.910088 
L 277.466986 -87.636585 
L 293.486124 -104.421825 
L 309.505263 -107.383839 
L 325.524402 -116.159476 
L 341.543541 -118.647655 
L 357.562679 -100.710577 
L 373.581818 -110.118696 
L 373.581818 -111.553171 
L 373.581818 -111.553171 
L 357.562679 -103.873419 
L 341.543541 -119.172825 
L 325.524402 -116.159476 
L 309.505263 -107.383839 
L 293.486124 -104.421825 
L 277.466986 -87.636585 
L 261.447847 -81.910088 
L 245.428708 -85.827961 
L 229.409569 -77.412234 
L 213.390431 -80.057345 
L 197.371292 -99.619979 
L 181.352153 -72.157852 
L 165.333014 -74.336968 
L 149.313876 -66.623023 
L 133.294737 -79.200363 
L 117.275598 -126.212824 
L 101.256459 -121.551753 
L 85.237321 -103.032749 
L 69.218182 -103.975032 
z
" style="stroke: #17becf"/>
    </defs>
    <g clip-path="url(#p2af9b15bd3)">
     <use xlink:href="#m8538077dfc" x="0" y="216" style="fill: #17becf; stroke: #17becf"/>
    </g>
   </g>
   <g id="PolyCollection_11">
    <defs>
     <path id="mbdb3a78ab8" d="M 69.218182 -106.303355 
L 69.218182 -103.975032 
L 85.237321 -103.032749 
L 101.256459 -121.551753 
L 117.275598 -126.212824 
L 133.294737 -79.200363 
L 149.313876 -66.623023 
L 165.333014 -74.336968 
L 181.352153 -72.157852 
L 197.371292 -99.619979 
L 213.390431 -80.057345 
L 229.409569 -77.412234 
L 245.428708 -85.827961 
L 261.447847 -81.910088 
L 277.466986 -87.636585 
L 293.486124 -104.421825 
L 309.505263 -107.383839 
L 325.524402 -116.159476 
L 341.543541 -119.172825 
L 357.562679 -103.873419 
L 373.581818 -111.553171 
L 373.581818 -111.553171 
L 373.581818 -111.553171 
L 357.562679 -104.619351 
L 341.543541 -119.172825 
L 325.524402 -116.159476 
L 309.505263 -111.872786 
L 293.486124 -112.642043 
L 277.466986 -88.2886 
L 261.447847 -94.066587 
L 245.428708 -92.45076 
L 229.409569 -80.658326 
L 213.390431 -80.057345 
L 197.371292 -99.619979 
L 181.352153 -72.157852 
L 165.333014 -74.336968 
L 149.313876 -66.623023 
L 133.294737 -79.200363 
L 117.275598 -126.212824 
L 101.256459 -121.551753 
L 85.237321 -106.267984 
L 69.218182 -106.303355 
z
" style="stroke: #1f77b4"/>
    </defs>
    <g clip-path="url(#p2af9b15bd3)">
     <use xlink:href="#mbdb3a78ab8" x="0" y="216" style="fill: #1f77b4; stroke: #1f77b4"/>
    </g>
   </g>
   <g id="PolyCollection_12">
    <defs>
     <path id="m9cc27a1904" d="M 69.218182 -106.303355 
L 69.218182 -106.303355 
L 85.237321 -106.267984 
L 101.256459 -121.551753 
L 117.275598 -126.212824 
L 133.294737 -79.200363 
L 149.313876 -66.623023 
L 165.333014 -74.336968 
L 181.352153 -72.157852 
L 197.371292 -99.619979 
L 213.390431 -80.057345 
L 229.409569 -80.658326 
L 245.428708 -92.45076 
L 261.447847 -94.066587 
L 277.466986 -88.2886 
L 293.486124 -112.642043 
L 309.505263 -111.872786 
L 325.524402 -116.159476 
L 341.543541 -119.172825 
L 357.562679 -104.619351 
L 373.581818 -111.553171 
L 373.581818 -117.750307 
L 373.581818 -117.750307 
L 357.562679 -118.870956 
L 341.543541 -121.573424 
L 325.524402 -116.159476 
L 309.505263 -113.568797 
L 293.486124 -123.0847 
L 277.466986 -93.694638 
L 261.447847 -101.889906 
L 245.428708 -98.839899 
L 229.409569 -115.704036 
L 213.390431 -91.032333 
L 197.371292 -120.327944 
L 181.352153 -91.748297 
L 165.333014 -92.627614 
L 149.313876 -81.361387 
L 133.294737 -79.200363 
L 117.275598 -133.824346 
L 101.256459 -121.551753 
L 85.237321 -106.267984 
L 69.218182 -106.303355 
z
" style="stroke: #ff7f0e"/>
    </defs>
    <g clip-path="url(#p2af9b15bd3)">
     <use xlink:href="#m9cc27a1904" x="0" y="216" style="fill: #ff7f0e; stroke: #ff7f0e"/>
    </g>
   </g>
   <g id="PolyCollection_13">
    <defs>
     <path id="m3d62e28790" d="M 69.218182 -106.303355 
L 69.218182 -106.303355 
L 85.237321 -106.267984 
L 101.256459 -121.551753 
L 117.275598 -133.824346 
L 133.294737 -79.200363 
L 149.313876 -81.361387 
L 165.333014 -92.627614 
L 181.352153 -91.748297 
L 197.371292 -120.327944 
L 213.390431 -91.032333 
L 229.409569 -115.704036 
L 245.428708 -98.839899 
L 261.447847 -101.889906 
L 277.466986 -93.694638 
L 293.486124 -123.0847 
L 309.505263 -113.568797 
L 325.524402 -116.159476 
L 341.543541 -121.573424 
L 357.562679 -118.870956 
L 373.581818 -117.750307 
L 373.581818 -121.283261 
L 373.581818 -121.283261 
L 357.562679 -118.870956 
L 341.543541 -132.271133 
L 325.524402 -121.987097 
L 309.505263 -113.568797 
L 293.486124 -123.919753 
L 277.466986 -108.202648 
L 261.447847 -113.864226 
L 245.428708 -103.655743 
L 229.409569 -115.704036 
L 213.390431 -91.032333 
L 197.371292 -120.327944 
L 181.352153 -91.748297 
L 165.333014 -92.627614 
L 149.313876 -81.361387 
L 133.294737 -89.045343 
L 117.275598 -133.824346 
L 101.256459 -121.551753 
L 85.237321 -106.267984 
L 69.218182 -106.303355 
z
" style="stroke: #2ca02c"/>
    </defs>
    <g clip-path="url(#p2af9b15bd3)">
     <use xlink:href="#m3d62e28790" x="0" y="216" style="fill: #2ca02c; stroke: #2ca02c"/>
    </g>
   </g>
   <g id="PolyCollection_14">
    <defs>
     <path id="m8c2c19d1a4" d="M 69.218182 -131.256384 
L 69.218182 -106.303355 
L 85.237321 -106.267984 
L 101.256459 -121.551753 
L 117.275598 -133.824346 
L 133.294737 -89.045343 
L 149.313876 -81.361387 
L 165.333014 -92.627614 
L 181.352153 -91.748297 
L 197.371292 -120.327944 
L 213.390431 -91.032333 
L 229.409569 -115.704036 
L 245.428708 -103.655743 
L 261.447847 -113.864226 
L 277.466986 -108.202648 
L 293.486124 -123.919753 
L 309.505263 -113.568797 
L 325.524402 -121.987097 
L 341.543541 -132.271133 
L 357.562679 -118.870956 
L 373.581818 -121.283261 
L 373.581818 -121.283261 
L 373.581818 -121.283261 
L 357.562679 -118.870956 
L 341.543541 -132.271133 
L 325.524402 -121.987097 
L 309.505263 -127.890289 
L 293.486124 -137.501419 
L 277.466986 -130.27543 
L 261.447847 -117.620653 
L 245.428708 -111.825581 
L 229.409569 -119.902574 
L 213.390431 -91.032333 
L 197.371292 -124.065098 
L 181.352153 -103.06546 
L 165.333014 -98.783699 
L 149.313876 -97.97519 
L 133.294737 -109.987917 
L 117.275598 -155.1754 
L 101.256459 -138.368796 
L 85.237321 -121.247715 
L 69.218182 -131.256384 
z
" style="stroke: #d62728"/>
    </defs>
    <g clip-path="url(#p2af9b15bd3)">
     <use xlink:href="#m8c2c19d1a4" x="0" y="216" style="fill: #d62728; stroke: #d62728"/>
    </g>
   </g>
   <g id="PolyCollection_15">
    <defs>
     <path id="m5f6a3fc719" d="M 69.218182 -133.068967 
L 69.218182 -131.256384 
L 85.237321 -121.247715 
L 101.256459 -138.368796 
L 117.275598 -155.1754 
L 133.294737 -109.987917 
L 149.313876 -97.97519 
L 165.333014 -98.783699 
L 181.352153 -103.06546 
L 197.371292 -124.065098 
L 213.390431 -91.032333 
L 229.409569 -119.902574 
L 245.428708 -111.825581 
L 261.447847 -117.620653 
L 277.466986 -130.27543 
L 293.486124 -137.501419 
L 309.505263 -127.890289 
L 325.524402 -121.987097 
L 341.543541 -132.271133 
L 357.562679 -118.870956 
L 373.581818 -121.283261 
L 373.581818 -121.283261 
L 373.581818 -121.283261 
L 357.562679 -118.870956 
L 341.543541 -132.271133 
L 325.524402 -121.987097 
L 309.505263 -127.890289 
L 293.486124 -137.501419 
L 277.466986 -134.568204 
L 261.447847 -117.620653 
L 245.428708 -111.825581 
L 229.409569 -119.902574 
L 213.390431 -97.800728 
L 197.371292 -133.313826 
L 181.352153 -130.578375 
L 165.333014 -137.573859 
L 149.313876 -130.839007 
L 133.294737 -128.917942 
L 117.275598 -162.504529 
L 101.256459 -138.741674 
L 85.237321 -124.847723 
L 69.218182 -133.068967 
z
" style="stroke: #9467bd"/>
    </defs>
    <g clip-path="url(#p2af9b15bd3)">
     <use xlink:href="#m5f6a3fc719" x="0" y="216" style="fill: #9467bd; stroke: #9467bd"/>
    </g>
   </g>
   <g id="PolyCollection_16">
    <defs>
     <path id="m7dc289916e" d="M 69.218182 -141.664165 
L 69.218182 -133.068967 
L 85.237321 -124.847723 
L 101.256459 -138.741674 
L 117.275598 -162.504529 
L 133.294737 -128.917942 
L 149.313876 -130.839007 
L 165.333014 -137.573859 
L 181.352153 -130.578375 
L 197.371292 -133.313826 
L 213.390431 -97.800728 
L 229.409569 -119.902574 
L 245.428708 -111.825581 
L 261.447847 -117.620653 
L 277.466986 -134.568204 
L 293.486124 -137.501419 
L 309.505263 -127.890289 
L 325.524402 -121.987097 
L 341.543541 -132.271133 
L 357.562679 -118.870956 
L 373.581818 -121.283261 
L 373.581818 -121.283261 
L 373.581818 -121.283261 
L 357.562679 -118.870956 
L 341.543541 -132.271133 
L 325.524402 -124.545841 
L 309.505263 -127.890289 
L 293.486124 -137.501419 
L 277.466986 -134.568204 
L 261.447847 -117.620653 
L 245.428708 -111.825581 
L 229.409569 -119.902574 
L 213.390431 -97.800728 
L 197.371292 -133.313826 
L 181.352153 -130.578375 
L 165.333014 -137.573859 
L 149.313876 -130.839007 
L 133.294737 -128.917942 
L 117.275598 -168.658769 
L 101.256459 -150.096236 
L 85.237321 -136.774372 
L 69.218182 -141.664165 
z
" style="stroke: #8c564b"/>
    </defs>
    <g clip-path="url(#p2af9b15bd3)">
     <use xlink:href="#m7dc289916e" x="0" y="216" style="fill: #8c564b; stroke: #8c564b"/>
    </g>
   </g>
   <g id="PolyCollection_17">
    <defs>
     <path id="mc7001285c2" d="M 69.218182 -159.053205 
L 69.218182 -141.664165 
L 85.237321 -136.774372 
L 101.256459 -150.096236 
L 117.275598 -168.658769 
L 133.294737 -128.917942 
L 149.313876 -130.839007 
L 165.333014 -137.573859 
L 181.352153 -130.578375 
L 197.371292 -133.313826 
L 213.390431 -97.800728 
L 229.409569 -119.902574 
L 245.428708 -111.825581 
L 261.447847 -117.620653 
L 277.466986 -134.568204 
L 293.486124 -137.501419 
L 309.505263 -127.890289 
L 325.524402 -124.545841 
L 341.543541 -132.271133 
L 357.562679 -118.870956 
L 373.581818 -121.283261 
L 373.581818 -142.922632 
L 373.581818 -142.922632 
L 357.562679 -147.828646 
L 341.543541 -153.474911 
L 325.524402 -144.40671 
L 309.505263 -152.54903 
L 293.486124 -162.64466 
L 277.466986 -163.470055 
L 261.447847 -160.944615 
L 245.428708 -168.977526 
L 229.409569 -167.236942 
L 213.390431 -162.830151 
L 197.371292 -178.048903 
L 181.352153 -172.737606 
L 165.333014 -175.925339 
L 149.313876 -173.321145 
L 133.294737 -172.63965 
L 117.275598 -170.173918 
L 101.256459 -170.046168 
L 85.237321 -156.264651 
L 69.218182 -159.053205 
z
" style="stroke: #e377c2"/>
    </defs>
    <g clip-path="url(#p2af9b15bd3)">
     <use xlink:href="#mc7001285c2" x="0" y="216" style="fill: #e377c2; stroke: #e377c2"/>
    </g>
   </g>
   <g id="PolyCollection_18">
    <defs>
     <path id="m0feeb28bdc" d="M 69.218182 -177.886942 
L 69.218182 -159.053205 
L 85.237321 -156.264651 
L 101.256459 -170.046168 
L 117.275598 -170.173918 
L 133.294737 -172.63965 
L 149.313876 -173.321145 
L 165.333014 -175.925339 
L 181.352153 -172.737606 
L 197.371292 -178.048903 
L 213.390431 -162.830151 
L 229.409569 -167.236942 
L 245.428708 -168.977526 
L 261.447847 -160.944615 
L 277.466986 -163.470055 
L 293.486124 -162.64466 
L 309.505263 -152.54903 
L 325.524402 -144.40671 
L 341.543541 -153.474911 
L 357.562679 -147.828646 
L 373.581818 -142.922632 
L 373.581818 -167.72002 
L 373.581818 -167.72002 
L 357.562679 -172.275613 
L 341.543541 -168.356312 
L 325.524402 -160.292756 
L 309.505263 -154.674171 
L 293.486124 -163.580938 
L 277.466986 -168.66253 
L 261.447847 -160.944615 
L 245.428708 -176.203077 
L 229.409569 -176.414842 
L 213.390431 -173.883888 
L 197.371292 -178.048903 
L 181.352153 -173.989123 
L 165.333014 -178.419228 
L 149.313876 -174.784762 
L 133.294737 -173.735053 
L 117.275598 -170.173918 
L 101.256459 -178.221171 
L 85.237321 -181.274351 
L 69.218182 -177.886942 
z
" style="stroke: #7f7f7f"/>
    </defs>
    <g clip-path="url(#p2af9b15bd3)">
     <use xlink:href="#m0feeb28bdc" x="0" y="216" style="fill: #7f7f7f; stroke: #7f7f7f"/>
    </g>
   </g>
   <g id="PolyCollection_19">
    <defs>
     <path id="mad88a797e1" d="M 69.218182 -181.015342 
L 69.218182 -177.886942 
L 85.237321 -181.274351 
L 101.256459 -178.221171 
L 117.275598 -170.173918 
L 133.294737 -173.735053 
L 149.313876 -174.784762 
L 165.333014 -178.419228 
L 181.352153 -173.989123 
L 197.371292 -178.048903 
L 213.390431 -173.883888 
L 229.409569 -176.414842 
L 245.428708 -176.203077 
L 261.447847 -160.944615 
L 277.466986 -168.66253 
L 293.486124 -163.580938 
L 309.505263 -154.674171 
L 325.524402 -160.292756 
L 341.543541 -168.356312 
L 357.562679 -172.275613 
L 373.581818 -167.72002 
L 373.581818 -179.38392 
L 373.581818 -179.38392 
L 357.562679 -177.180835 
L 341.543541 -177.503599 
L 325.524402 -176.861491 
L 309.505263 -171.958457 
L 293.486124 -177.760557 
L 277.466986 -178.77907 
L 261.447847 -171.925749 
L 245.428708 -176.9568 
L 229.409569 -177.119953 
L 213.390431 -182.100041 
L 197.371292 -178.048903 
L 181.352153 -181.883747 
L 165.333014 -181.441638 
L 149.313876 -176.826529 
L 133.294737 -176.336769 
L 117.275598 -170.173918 
L 101.256459 -178.221171 
L 85.237321 -181.274351 
L 69.218182 -181.015342 
z
" style="stroke: #bcbd22"/>
    </defs>
    <g clip-path="url(#p2af9b15bd3)">
     <use xlink:href="#mad88a797e1" x="0" y="216" style="fill: #bcbd22; stroke: #bcbd22"/>
    </g>
   </g>
   <g id="PolyCollection_20">
    <defs>
     <path id="mc88bf1f91b" d="M 69.218182 -182.16 
L 69.218182 -181.015342 
L 85.237321 -181.274351 
L 101.256459 -178.221171 
L 117.275598 -170.173918 
L 133.294737 -176.336769 
L 149.313876 -176.826529 
L 165.333014 -181.441638 
L 181.352153 -181.883747 
L 197.371292 -178.048903 
L 213.390431 -182.100041 
L 229.409569 -177.119953 
L 245.428708 -176.9568 
L 261.447847 -171.925749 
L 277.466986 -178.77907 
L 293.486124 -177.760557 
L 309.505263 -171.958457 
L 325.524402 -176.861491 
L 341.543541 -177.503599 
L 357.562679 -177.180835 
L 373.581818 -179.38392 
L 373.581818 -182.16 
L 373.581818 -182.16 
L 357.562679 -182.16 
L 341.543541 -182.16 
L 325.524402 -182.16 
L 309.505263 -182.16 
L 293.486124 -182.16 
L 277.466986 -182.16 
L 261.447847 -182.16 
L 245.428708 -182.16 
L 229.409569 -182.16 
L 213.390431 -182.16 
L 197.371292 -182.16 
L 181.352153 -182.16 
L 165.333014 -182.16 
L 149.313876 -182.16 
L 133.294737 -182.16 
L 117.275598 -182.16 
L 101.256459 -182.16 
L 85.237321 -182.16 
L 69.218182 -182.16 
z
" style="stroke: #17becf"/>
    </defs>
    <g clip-path="url(#p2af9b15bd3)">
     <use xlink:href="#mc88bf1f91b" x="0" y="216" style="fill: #17becf; stroke: #17becf"/>
    </g>
   </g>
   <g id="matplotlib.axis_1">
    <g id="xtick_1">
     <g id="line2d_1">
      <defs>
       <path id="m20e2df7628" d="M 0 0 
L 0 3.5 
" style="stroke: #000000; stroke-width: 0.8"/>
      </defs>
      <g>
       <use xlink:href="#m20e2df7628" x="93.24689" y="192.24" style="stroke: #000000; stroke-width: 0.8"/>
      </g>
     </g>
     <g id="text_1">
      <!-- 2.5 -->
      <g transform="translate(85.295327 206.838437) scale(0.1 -0.1)">
       <defs>
        <path id="DejaVuSans-32" d="M 1228 531 
L 3431 531 
L 3431 0 
L 469 0 
L 469 531 
Q 828 903 1448 1529 
Q 2069 2156 2228 2338 
Q 2531 2678 2651 2914 
Q 2772 3150 2772 3378 
Q 2772 3750 2511 3984 
Q 2250 4219 1831 4219 
Q 1534 4219 1204 4116 
Q 875 4013 500 3803 
L 500 4441 
Q 881 4594 1212 4672 
Q 1544 4750 1819 4750 
Q 2544 4750 2975 4387 
Q 3406 4025 3406 3419 
Q 3406 3131 3298 2873 
Q 3191 2616 2906 2266 
Q 2828 2175 2409 1742 
Q 1991 1309 1228 531 
z
" transform="scale(0.015625)"/>
        <path id="DejaVuSans-2e" d="M 684 794 
L 1344 794 
L 1344 0 
L 684 0 
L 684 794 
z
" transform="scale(0.015625)"/>
        <path id="DejaVuSans-35" d="M 691 4666 
L 3169 4666 
L 3169 4134 
L 1269 4134 
L 1269 2991 
Q 1406 3038 1543 3061 
Q 1681 3084 1819 3084 
Q 2600 3084 3056 2656 
Q 3513 2228 3513 1497 
Q 3513 744 3044 326 
Q 2575 -91 1722 -91 
Q 1428 -91 1123 -41 
Q 819 9 494 109 
L 494 744 
Q 775 591 1075 516 
Q 1375 441 1709 441 
Q 2250 441 2565 725 
Q 2881 1009 2881 1497 
Q 2881 1984 2565 2268 
Q 2250 2553 1709 2553 
Q 1456 2553 1204 2497 
Q 953 2441 691 2322 
L 691 4666 
z
" transform="scale(0.015625)"/>
       </defs>
       <use xlink:href="#DejaVuSans-32"/>
       <use xlink:href="#DejaVuSans-2e" x="63.623047"/>
       <use xlink:href="#DejaVuSans-35" x="95.410156"/>
      </g>
     </g>
    </g>
    <g id="xtick_2">
     <g id="line2d_2">
      <g>
       <use xlink:href="#m20e2df7628" x="133.294737" y="192.24" style="stroke: #000000; stroke-width: 0.8"/>
      </g>
     </g>
     <g id="text_2">
      <!-- 5.0 -->
      <g transform="translate(125.343174 206.838437) scale(0.1 -0.1)">
       <defs>
        <path id="DejaVuSans-30" d="M 2034 4250 
Q 1547 4250 1301 3770 
Q 1056 3291 1056 2328 
Q 1056 1369 1301 889 
Q 1547 409 2034 409 
Q 2525 409 2770 889 
Q 3016 1369 3016 2328 
Q 3016 3291 2770 3770 
Q 2525 4250 2034 4250 
z
M 2034 4750 
Q 2819 4750 3233 4129 
Q 3647 3509 3647 2328 
Q 3647 1150 3233 529 
Q 2819 -91 2034 -91 
Q 1250 -91 836 529 
Q 422 1150 422 2328 
Q 422 3509 836 4129 
Q 1250 4750 2034 4750 
z
" transform="scale(0.015625)"/>
       </defs>
       <use xlink:href="#DejaVuSans-35"/>
       <use xlink:href="#DejaVuSans-2e" x="63.623047"/>
       <use xlink:href="#DejaVuSans-30" x="95.410156"/>
      </g>
     </g>
    </g>
    <g id="xtick_3">
     <g id="line2d_3">
      <g>
       <use xlink:href="#m20e2df7628" x="173.342584" y="192.24" style="stroke: #000000; stroke-width: 0.8"/>
      </g>
     </g>
     <g id="text_3">
      <!-- 7.5 -->
      <g transform="translate(165.391021 206.838437) scale(0.1 -0.1)">
       <defs>
        <path id="DejaVuSans-37" d="M 525 4666 
L 3525 4666 
L 3525 4397 
L 1831 0 
L 1172 0 
L 2766 4134 
L 525 4134 
L 525 4666 
z
" transform="scale(0.015625)"/>
       </defs>
       <use xlink:href="#DejaVuSans-37"/>
       <use xlink:href="#DejaVuSans-2e" x="63.623047"/>
       <use xlink:href="#DejaVuSans-35" x="95.410156"/>
      </g>
     </g>
    </g>
    <g id="xtick_4">
     <g id="line2d_4">
      <g>
       <use xlink:href="#m20e2df7628" x="213.390431" y="192.24" style="stroke: #000000; stroke-width: 0.8"/>
      </g>
     </g>
     <g id="text_4">
      <!-- 10.0 -->
      <g transform="translate(202.257618 206.838437) scale(0.1 -0.1)">
       <defs>
        <path id="DejaVuSans-31" d="M 794 531 
L 1825 531 
L 1825 4091 
L 703 3866 
L 703 4441 
L 1819 4666 
L 2450 4666 
L 2450 531 
L 3481 531 
L 3481 0 
L 794 0 
L 794 531 
z
" transform="scale(0.015625)"/>
       </defs>
       <use xlink:href="#DejaVuSans-31"/>
       <use xlink:href="#DejaVuSans-30" x="63.623047"/>
       <use xlink:href="#DejaVuSans-2e" x="127.246094"/>
       <use xlink:href="#DejaVuSans-30" x="159.033203"/>
      </g>
     </g>
    </g>
    <g id="xtick_5">
     <g id="line2d_5">
      <g>
       <use xlink:href="#m20e2df7628" x="253.438278" y="192.24" style="stroke: #000000; stroke-width: 0.8"/>
      </g>
     </g>
     <g id="text_5">
      <!-- 12.5 -->
      <g transform="translate(242.305465 206.838437) scale(0.1 -0.1)">
       <use xlink:href="#DejaVuSans-31"/>
       <use xlink:href="#DejaVuSans-32" x="63.623047"/>
       <use xlink:href="#DejaVuSans-2e" x="127.246094"/>
       <use xlink:href="#DejaVuSans-35" x="159.033203"/>
      </g>
     </g>
    </g>
    <g id="xtick_6">
     <g id="line2d_6">
      <g>
       <use xlink:href="#m20e2df7628" x="293.486124" y="192.24" style="stroke: #000000; stroke-width: 0.8"/>
      </g>
     </g>
     <g id="text_6">
      <!-- 15.0 -->
      <g transform="translate(282.353312 206.838437) scale(0.1 -0.1)">
       <use xlink:href="#DejaVuSans-31"/>
       <use xlink:href="#DejaVuSans-35" x="63.623047"/>
       <use xlink:href="#DejaVuSans-2e" x="127.246094"/>
       <use xlink:href="#DejaVuSans-30" x="159.033203"/>
      </g>
     </g>
    </g>
    <g id="xtick_7">
     <g id="line2d_7">
      <g>
       <use xlink:href="#m20e2df7628" x="333.533971" y="192.24" style="stroke: #000000; stroke-width: 0.8"/>
      </g>
     </g>
     <g id="text_7">
      <!-- 17.5 -->
      <g transform="translate(322.401159 206.838437) scale(0.1 -0.1)">
       <use xlink:href="#DejaVuSans-31"/>
       <use xlink:href="#DejaVuSans-37" x="63.623047"/>
       <use xlink:href="#DejaVuSans-2e" x="127.246094"/>
       <use xlink:href="#DejaVuSans-35" x="159.033203"/>
      </g>
     </g>
    </g>
    <g id="xtick_8">
     <g id="line2d_8">
      <g>
       <use xlink:href="#m20e2df7628" x="373.581818" y="192.24" style="stroke: #000000; stroke-width: 0.8"/>
      </g>
     </g>
     <g id="text_8">
      <!-- 20.0 -->
      <g transform="translate(362.449006 206.838437) scale(0.1 -0.1)">
       <use xlink:href="#DejaVuSans-32"/>
       <use xlink:href="#DejaVuSans-30" x="63.623047"/>
       <use xlink:href="#DejaVuSans-2e" x="127.246094"/>
       <use xlink:href="#DejaVuSans-30" x="159.033203"/>
      </g>
     </g>
    </g>
    <g id="text_9">
     <!-- Rebalance Period -->
     <g transform="translate(178.210938 220.516562) scale(0.1 -0.1)">
      <defs>
       <path id="DejaVuSans-52" d="M 2841 2188 
Q 3044 2119 3236 1894 
Q 3428 1669 3622 1275 
L 4263 0 
L 3584 0 
L 2988 1197 
Q 2756 1666 2539 1819 
Q 2322 1972 1947 1972 
L 1259 1972 
L 1259 0 
L 628 0 
L 628 4666 
L 2053 4666 
Q 2853 4666 3247 4331 
Q 3641 3997 3641 3322 
Q 3641 2881 3436 2590 
Q 3231 2300 2841 2188 
z
M 1259 4147 
L 1259 2491 
L 2053 2491 
Q 2509 2491 2742 2702 
Q 2975 2913 2975 3322 
Q 2975 3731 2742 3939 
Q 2509 4147 2053 4147 
L 1259 4147 
z
" transform="scale(0.015625)"/>
       <path id="DejaVuSans-65" d="M 3597 1894 
L 3597 1613 
L 953 1613 
Q 991 1019 1311 708 
Q 1631 397 2203 397 
Q 2534 397 2845 478 
Q 3156 559 3463 722 
L 3463 178 
Q 3153 47 2828 -22 
Q 2503 -91 2169 -91 
Q 1331 -91 842 396 
Q 353 884 353 1716 
Q 353 2575 817 3079 
Q 1281 3584 2069 3584 
Q 2775 3584 3186 3129 
Q 3597 2675 3597 1894 
z
M 3022 2063 
Q 3016 2534 2758 2815 
Q 2500 3097 2075 3097 
Q 1594 3097 1305 2825 
Q 1016 2553 972 2059 
L 3022 2063 
z
" transform="scale(0.015625)"/>
       <path id="DejaVuSans-62" d="M 3116 1747 
Q 3116 2381 2855 2742 
Q 2594 3103 2138 3103 
Q 1681 3103 1420 2742 
Q 1159 2381 1159 1747 
Q 1159 1113 1420 752 
Q 1681 391 2138 391 
Q 2594 391 2855 752 
Q 3116 1113 3116 1747 
z
M 1159 2969 
Q 1341 3281 1617 3432 
Q 1894 3584 2278 3584 
Q 2916 3584 3314 3078 
Q 3713 2572 3713 1747 
Q 3713 922 3314 415 
Q 2916 -91 2278 -91 
Q 1894 -91 1617 61 
Q 1341 213 1159 525 
L 1159 0 
L 581 0 
L 581 4863 
L 1159 4863 
L 1159 2969 
z
" transform="scale(0.015625)"/>
       <path id="DejaVuSans-61" d="M 2194 1759 
Q 1497 1759 1228 1600 
Q 959 1441 959 1056 
Q 959 750 1161 570 
Q 1363 391 1709 391 
Q 2188 391 2477 730 
Q 2766 1069 2766 1631 
L 2766 1759 
L 2194 1759 
z
M 3341 1997 
L 3341 0 
L 2766 0 
L 2766 531 
Q 2569 213 2275 61 
Q 1981 -91 1556 -91 
Q 1019 -91 701 211 
Q 384 513 384 1019 
Q 384 1609 779 1909 
Q 1175 2209 1959 2209 
L 2766 2209 
L 2766 2266 
Q 2766 2663 2505 2880 
Q 2244 3097 1772 3097 
Q 1472 3097 1187 3025 
Q 903 2953 641 2809 
L 641 3341 
Q 956 3463 1253 3523 
Q 1550 3584 1831 3584 
Q 2591 3584 2966 3190 
Q 3341 2797 3341 1997 
z
" transform="scale(0.015625)"/>
       <path id="DejaVuSans-6c" d="M 603 4863 
L 1178 4863 
L 1178 0 
L 603 0 
L 603 4863 
z
" transform="scale(0.015625)"/>
       <path id="DejaVuSans-6e" d="M 3513 2113 
L 3513 0 
L 2938 0 
L 2938 2094 
Q 2938 2591 2744 2837 
Q 2550 3084 2163 3084 
Q 1697 3084 1428 2787 
Q 1159 2491 1159 1978 
L 1159 0 
L 581 0 
L 581 3500 
L 1159 3500 
L 1159 2956 
Q 1366 3272 1645 3428 
Q 1925 3584 2291 3584 
Q 2894 3584 3203 3211 
Q 3513 2838 3513 2113 
z
" transform="scale(0.015625)"/>
       <path id="DejaVuSans-63" d="M 3122 3366 
L 3122 2828 
Q 2878 2963 2633 3030 
Q 2388 3097 2138 3097 
Q 1578 3097 1268 2742 
Q 959 2388 959 1747 
Q 959 1106 1268 751 
Q 1578 397 2138 397 
Q 2388 397 2633 464 
Q 2878 531 3122 666 
L 3122 134 
Q 2881 22 2623 -34 
Q 2366 -91 2075 -91 
Q 1284 -91 818 406 
Q 353 903 353 1747 
Q 353 2603 823 3093 
Q 1294 3584 2113 3584 
Q 2378 3584 2631 3529 
Q 2884 3475 3122 3366 
z
" transform="scale(0.015625)"/>
       <path id="DejaVuSans-20" transform="scale(0.015625)"/>
       <path id="DejaVuSans-50" d="M 1259 4147 
L 1259 2394 
L 2053 2394 
Q 2494 2394 2734 2622 
Q 2975 2850 2975 3272 
Q 2975 3691 2734 3919 
Q 2494 4147 2053 4147 
L 1259 4147 
z
M 628 4666 
L 2053 4666 
Q 2838 4666 3239 4311 
Q 3641 3956 3641 3272 
Q 3641 2581 3239 2228 
Q 2838 1875 2053 1875 
L 1259 1875 
L 1259 0 
L 628 0 
L 628 4666 
z
" transform="scale(0.015625)"/>
       <path id="DejaVuSans-72" d="M 2631 2963 
Q 2534 3019 2420 3045 
Q 2306 3072 2169 3072 
Q 1681 3072 1420 2755 
Q 1159 2438 1159 1844 
L 1159 0 
L 581 0 
L 581 3500 
L 1159 3500 
L 1159 2956 
Q 1341 3275 1631 3429 
Q 1922 3584 2338 3584 
Q 2397 3584 2469 3576 
Q 2541 3569 2628 3553 
L 2631 2963 
z
" transform="scale(0.015625)"/>
       <path id="DejaVuSans-69" d="M 603 3500 
L 1178 3500 
L 1178 0 
L 603 0 
L 603 3500 
z
M 603 4863 
L 1178 4863 
L 1178 4134 
L 603 4134 
L 603 4863 
z
" transform="scale(0.015625)"/>
       <path id="DejaVuSans-6f" d="M 1959 3097 
Q 1497 3097 1228 2736 
Q 959 2375 959 1747 
Q 959 1119 1226 758 
Q 1494 397 1959 397 
Q 2419 397 2687 759 
Q 2956 1122 2956 1747 
Q 2956 2369 2687 2733 
Q 2419 3097 1959 3097 
z
M 1959 3584 
Q 2709 3584 3137 3096 
Q 3566 2609 3566 1747 
Q 3566 888 3137 398 
Q 2709 -91 1959 -91 
Q 1206 -91 779 398 
Q 353 888 353 1747 
Q 353 2609 779 3096 
Q 1206 3584 1959 3584 
z
" transform="scale(0.015625)"/>
       <path id="DejaVuSans-64" d="M 2906 2969 
L 2906 4863 
L 3481 4863 
L 3481 0 
L 2906 0 
L 2906 525 
Q 2725 213 2448 61 
Q 2172 -91 1784 -91 
Q 1150 -91 751 415 
Q 353 922 353 1747 
Q 353 2572 751 3078 
Q 1150 3584 1784 3584 
Q 2172 3584 2448 3432 
Q 2725 3281 2906 2969 
z
M 947 1747 
Q 947 1113 1208 752 
Q 1469 391 1925 391 
Q 2381 391 2643 752 
Q 2906 1113 2906 1747 
Q 2906 2381 2643 2742 
Q 2381 3103 1925 3103 
Q 1469 3103 1208 2742 
Q 947 2381 947 1747 
z
" transform="scale(0.015625)"/>
      </defs>
      <use xlink:href="#DejaVuSans-52"/>
      <use xlink:href="#DejaVuSans-65" x="64.982422"/>
      <use xlink:href="#DejaVuSans-62" x="126.505859"/>
      <use xlink:href="#DejaVuSans-61" x="189.982422"/>
      <use xlink:href="#DejaVuSans-6c" x="251.261719"/>
      <use xlink:href="#DejaVuSans-61" x="279.044922"/>
      <use xlink:href="#DejaVuSans-6e" x="340.324219"/>
      <use xlink:href="#DejaVuSans-63" x="403.703125"/>
      <use xlink:href="#DejaVuSans-65" x="458.683594"/>
      <use xlink:href="#DejaVuSans-20" x="520.207031"/>
      <use xlink:href="#DejaVuSans-50" x="551.994141"/>
      <use xlink:href="#DejaVuSans-65" x="608.671875"/>
      <use xlink:href="#DejaVuSans-72" x="670.195312"/>
      <use xlink:href="#DejaVuSans-69" x="711.308594"/>
      <use xlink:href="#DejaVuSans-6f" x="739.091797"/>
      <use xlink:href="#DejaVuSans-64" x="800.273438"/>
     </g>
    </g>
   </g>
   <g id="matplotlib.axis_2">
    <g id="ytick_1">
     <g id="line2d_9">
      <defs>
       <path id="m6a62af5ac2" d="M 0 0 
L -3.5 0 
" style="stroke: #000000; stroke-width: 0.8"/>
      </defs>
      <g>
       <use xlink:href="#m6a62af5ac2" x="54" y="192.24" style="stroke: #000000; stroke-width: 0.8"/>
      </g>
     </g>
     <g id="text_10">
      <!-- 0.0 -->
      <g transform="translate(31.096875 196.039219) scale(0.1 -0.1)">
       <use xlink:href="#DejaVuSans-30"/>
       <use xlink:href="#DejaVuSans-2e" x="63.623047"/>
       <use xlink:href="#DejaVuSans-30" x="95.410156"/>
      </g>
     </g>
    </g>
    <g id="ytick_2">
     <g id="line2d_10">
      <g>
       <use xlink:href="#m6a62af5ac2" x="54" y="160.56" style="stroke: #000000; stroke-width: 0.8"/>
      </g>
     </g>
     <g id="text_11">
      <!-- 0.2 -->
      <g transform="translate(31.096875 164.359219) scale(0.1 -0.1)">
       <use xlink:href="#DejaVuSans-30"/>
       <use xlink:href="#DejaVuSans-2e" x="63.623047"/>
       <use xlink:href="#DejaVuSans-32" x="95.410156"/>
      </g>
     </g>
    </g>
    <g id="ytick_3">
     <g id="line2d_11">
      <g>
       <use xlink:href="#m6a62af5ac2" x="54" y="128.88" style="stroke: #000000; stroke-width: 0.8"/>
      </g>
     </g>
     <g id="text_12">
      <!-- 0.4 -->
      <g transform="translate(31.096875 132.679219) scale(0.1 -0.1)">
       <defs>
        <path id="DejaVuSans-34" d="M 2419 4116 
L 825 1625 
L 2419 1625 
L 2419 4116 
z
M 2253 4666 
L 3047 4666 
L 3047 1625 
L 3713 1625 
L 3713 1100 
L 3047 1100 
L 3047 0 
L 2419 0 
L 2419 1100 
L 313 1100 
L 313 1709 
L 2253 4666 
z
" transform="scale(0.015625)"/>
       </defs>
       <use xlink:href="#DejaVuSans-30"/>
       <use xlink:href="#DejaVuSans-2e" x="63.623047"/>
       <use xlink:href="#DejaVuSans-34" x="95.410156"/>
      </g>
     </g>
    </g>
    <g id="ytick_4">
     <g id="line2d_12">
      <g>
       <use xlink:href="#m6a62af5ac2" x="54" y="97.2" style="stroke: #000000; stroke-width: 0.8"/>
      </g>
     </g>
     <g id="text_13">
      <!-- 0.6 -->
      <g transform="translate(31.096875 100.999219) scale(0.1 -0.1)">
       <defs>
        <path id="DejaVuSans-36" d="M 2113 2584 
Q 1688 2584 1439 2293 
Q 1191 2003 1191 1497 
Q 1191 994 1439 701 
Q 1688 409 2113 409 
Q 2538 409 2786 701 
Q 3034 994 3034 1497 
Q 3034 2003 2786 2293 
Q 2538 2584 2113 2584 
z
M 3366 4563 
L 3366 3988 
Q 3128 4100 2886 4159 
Q 2644 4219 2406 4219 
Q 1781 4219 1451 3797 
Q 1122 3375 1075 2522 
Q 1259 2794 1537 2939 
Q 1816 3084 2150 3084 
Q 2853 3084 3261 2657 
Q 3669 2231 3669 1497 
Q 3669 778 3244 343 
Q 2819 -91 2113 -91 
Q 1303 -91 875 529 
Q 447 1150 447 2328 
Q 447 3434 972 4092 
Q 1497 4750 2381 4750 
Q 2619 4750 2861 4703 
Q 3103 4656 3366 4563 
z
" transform="scale(0.015625)"/>
       </defs>
       <use xlink:href="#DejaVuSans-30"/>
       <use xlink:href="#DejaVuSans-2e" x="63.623047"/>
       <use xlink:href="#DejaVuSans-36" x="95.410156"/>
      </g>
     </g>
    </g>
    <g id="ytick_5">
     <g id="line2d_13">
      <g>
       <use xlink:href="#m6a62af5ac2" x="54" y="65.52" style="stroke: #000000; stroke-width: 0.8"/>
      </g>
     </g>
     <g id="text_14">
      <!-- 0.8 -->
      <g transform="translate(31.096875 69.319219) scale(0.1 -0.1)">
       <defs>
        <path id="DejaVuSans-38" d="M 2034 2216 
Q 1584 2216 1326 1975 
Q 1069 1734 1069 1313 
Q 1069 891 1326 650 
Q 1584 409 2034 409 
Q 2484 409 2743 651 
Q 3003 894 3003 1313 
Q 3003 1734 2745 1975 
Q 2488 2216 2034 2216 
z
M 1403 2484 
Q 997 2584 770 2862 
Q 544 3141 544 3541 
Q 544 4100 942 4425 
Q 1341 4750 2034 4750 
Q 2731 4750 3128 4425 
Q 3525 4100 3525 3541 
Q 3525 3141 3298 2862 
Q 3072 2584 2669 2484 
Q 3125 2378 3379 2068 
Q 3634 1759 3634 1313 
Q 3634 634 3220 271 
Q 2806 -91 2034 -91 
Q 1263 -91 848 271 
Q 434 634 434 1313 
Q 434 1759 690 2068 
Q 947 2378 1403 2484 
z
M 1172 3481 
Q 1172 3119 1398 2916 
Q 1625 2713 2034 2713 
Q 2441 2713 2670 2916 
Q 2900 3119 2900 3481 
Q 2900 3844 2670 4047 
Q 2441 4250 2034 4250 
Q 1625 4250 1398 4047 
Q 1172 3844 1172 3481 
z
" transform="scale(0.015625)"/>
       </defs>
       <use xlink:href="#DejaVuSans-30"/>
       <use xlink:href="#DejaVuSans-2e" x="63.623047"/>
       <use xlink:href="#DejaVuSans-38" x="95.410156"/>
      </g>
     </g>
    </g>
    <g id="ytick_6">
     <g id="line2d_14">
      <g>
       <use xlink:href="#m6a62af5ac2" x="54" y="33.84" style="stroke: #000000; stroke-width: 0.8"/>
      </g>
     </g>
     <g id="text_15">
      <!-- 1.0 -->
      <g transform="translate(31.096875 37.639219) scale(0.1 -0.1)">
       <use xlink:href="#DejaVuSans-31"/>
       <use xlink:href="#DejaVuSans-2e" x="63.623047"/>
       <use xlink:href="#DejaVuSans-30" x="95.410156"/>
      </g>
     </g>
    </g>
    <g id="text_16">
     <!-- Weights -->
     <g transform="translate(25.017187 129.103437) rotate(-90) scale(0.1 -0.1)">
      <defs>
       <path id="DejaVuSans-57" d="M 213 4666 
L 850 4666 
L 1831 722 
L 2809 4666 
L 3519 4666 
L 4500 722 
L 5478 4666 
L 6119 4666 
L 4947 0 
L 4153 0 
L 3169 4050 
L 2175 0 
L 1381 0 
L 213 4666 
z
" transform="scale(0.015625)"/>
       <path id="DejaVuSans-67" d="M 2906 1791 
Q 2906 2416 2648 2759 
Q 2391 3103 1925 3103 
Q 1463 3103 1205 2759 
Q 947 2416 947 1791 
Q 947 1169 1205 825 
Q 1463 481 1925 481 
Q 2391 481 2648 825 
Q 2906 1169 2906 1791 
z
M 3481 434 
Q 3481 -459 3084 -895 
Q 2688 -1331 1869 -1331 
Q 1566 -1331 1297 -1286 
Q 1028 -1241 775 -1147 
L 775 -588 
Q 1028 -725 1275 -790 
Q 1522 -856 1778 -856 
Q 2344 -856 2625 -561 
Q 2906 -266 2906 331 
L 2906 616 
Q 2728 306 2450 153 
Q 2172 0 1784 0 
Q 1141 0 747 490 
Q 353 981 353 1791 
Q 353 2603 747 3093 
Q 1141 3584 1784 3584 
Q 2172 3584 2450 3431 
Q 2728 3278 2906 2969 
L 2906 3500 
L 3481 3500 
L 3481 434 
z
" transform="scale(0.015625)"/>
       <path id="DejaVuSans-68" d="M 3513 2113 
L 3513 0 
L 2938 0 
L 2938 2094 
Q 2938 2591 2744 2837 
Q 2550 3084 2163 3084 
Q 1697 3084 1428 2787 
Q 1159 2491 1159 1978 
L 1159 0 
L 581 0 
L 581 4863 
L 1159 4863 
L 1159 2956 
Q 1366 3272 1645 3428 
Q 1925 3584 2291 3584 
Q 2894 3584 3203 3211 
Q 3513 2838 3513 2113 
z
" transform="scale(0.015625)"/>
       <path id="DejaVuSans-74" d="M 1172 4494 
L 1172 3500 
L 2356 3500 
L 2356 3053 
L 1172 3053 
L 1172 1153 
Q 1172 725 1289 603 
Q 1406 481 1766 481 
L 2356 481 
L 2356 0 
L 1766 0 
Q 1100 0 847 248 
Q 594 497 594 1153 
L 594 3053 
L 172 3053 
L 172 3500 
L 594 3500 
L 594 4494 
L 1172 4494 
z
" transform="scale(0.015625)"/>
       <path id="DejaVuSans-73" d="M 2834 3397 
L 2834 2853 
Q 2591 2978 2328 3040 
Q 2066 3103 1784 3103 
Q 1356 3103 1142 2972 
Q 928 2841 928 2578 
Q 928 2378 1081 2264 
Q 1234 2150 1697 2047 
L 1894 2003 
Q 2506 1872 2764 1633 
Q 3022 1394 3022 966 
Q 3022 478 2636 193 
Q 2250 -91 1575 -91 
Q 1294 -91 989 -36 
Q 684 19 347 128 
L 347 722 
Q 666 556 975 473 
Q 1284 391 1588 391 
Q 1994 391 2212 530 
Q 2431 669 2431 922 
Q 2431 1156 2273 1281 
Q 2116 1406 1581 1522 
L 1381 1569 
Q 847 1681 609 1914 
Q 372 2147 372 2553 
Q 372 3047 722 3315 
Q 1072 3584 1716 3584 
Q 2034 3584 2315 3537 
Q 2597 3491 2834 3397 
z
" transform="scale(0.015625)"/>
      </defs>
      <use xlink:href="#DejaVuSans-57"/>
      <use xlink:href="#DejaVuSans-65" x="93.001953"/>
      <use xlink:href="#DejaVuSans-69" x="154.525391"/>
      <use xlink:href="#DejaVuSans-67" x="182.308594"/>
      <use xlink:href="#DejaVuSans-68" x="245.785156"/>
      <use xlink:href="#DejaVuSans-74" x="309.164062"/>
      <use xlink:href="#DejaVuSans-73" x="348.373047"/>
     </g>
    </g>
   </g>
   <g id="line2d_15">
    <path d="M 69.218182 192.24 
L 85.237321 192.24 
L 101.256459 192.24 
L 117.275598 192.24 
L 133.294737 192.24 
L 149.313876 192.24 
L 165.333014 192.24 
L 181.352153 192.24 
L 197.371292 192.24 
L 213.390431 192.24 
L 229.409569 192.24 
L 245.428708 192.24 
L 261.447847 192.24 
L 277.466986 192.24 
L 293.486124 190.882589 
L 309.505263 189.467422 
L 325.524402 187.458289 
L 341.543541 190.392473 
L 357.562679 192.24 
L 373.581818 192.24 
" clip-path="url(#p2af9b15bd3)" style="fill: none; stroke: #1f77b4; stroke-width: 1.5; stroke-linecap: square"/>
   </g>
   <g id="line2d_16">
    <path d="M 69.218182 187.927148 
L 85.237321 189.805862 
L 101.256459 189.037559 
L 117.275598 187.528232 
L 133.294737 192.24 
L 149.313876 192.24 
L 165.333014 192.24 
L 181.352153 192.24 
L 197.371292 192.24 
L 213.390431 192.24 
L 229.409569 192.24 
L 245.428708 192.24 
L 261.447847 192.24 
L 277.466986 192.24 
L 293.486124 190.882589 
L 309.505263 189.467422 
L 325.524402 177.037202 
L 341.543541 185.725631 
L 357.562679 189.871526 
L 373.581818 192.24 
" clip-path="url(#p2af9b15bd3)" style="fill: none; stroke: #ff7f0e; stroke-width: 1.5; stroke-linecap: square"/>
   </g>
   <g id="line2d_17">
    <path d="M 69.218182 183.029505 
L 85.237321 179.201363 
L 101.256459 173.774812 
L 117.275598 168.73457 
L 133.294737 185.192846 
L 149.313876 192.24 
L 165.333014 192.24 
L 181.352153 192.24 
L 197.371292 192.24 
L 213.390431 192.24 
L 229.409569 192.24 
L 245.428708 192.24 
L 261.447847 192.24 
L 277.466986 191.338571 
L 293.486124 190.882589 
L 309.505263 189.467422 
L 325.524402 176.498522 
L 341.543541 185.725631 
L 357.562679 189.871526 
L 373.581818 192.24 
" clip-path="url(#p2af9b15bd3)" style="fill: none; stroke: #2ca02c; stroke-width: 1.5; stroke-linecap: square"/>
   </g>
   <g id="line2d_18">
    <path d="M 69.218182 183.029505 
L 85.237321 179.051822 
L 101.256459 173.774812 
L 117.275598 167.797446 
L 133.294737 185.192846 
L 149.313876 192.24 
L 165.333014 182.171779 
L 181.352153 181.197756 
L 197.371292 154.018626 
L 213.390431 150.284474 
L 229.409569 169.233676 
L 245.428708 161.48487 
L 261.447847 151.744388 
L 277.466986 159.979317 
L 293.486124 164.577788 
L 309.505263 164.963652 
L 325.524402 165.295138 
L 341.543541 162.627969 
L 357.562679 180.186773 
L 373.581818 179.736012 
" clip-path="url(#p2af9b15bd3)" style="fill: none; stroke: #d62728; stroke-width: 1.5; stroke-linecap: square"/>
   </g>
   <g id="line2d_19">
    <path d="M 69.218182 180.494555 
L 85.237321 179.051822 
L 101.256459 159.739999 
L 117.275598 147.987993 
L 133.294737 177.279925 
L 149.313876 188.705422 
L 165.333014 182.171779 
L 181.352153 180.931455 
L 197.371292 151.387651 
L 213.390431 147.492091 
L 229.409569 167.231603 
L 245.428708 159.563435 
L 261.447847 151.744388 
L 277.466986 156.063634 
L 293.486124 157.720129 
L 309.505263 163.559702 
L 325.524402 165.295138 
L 341.543541 162.627969 
L 357.562679 180.186773 
L 373.581818 179.736012 
" clip-path="url(#p2af9b15bd3)" style="fill: none; stroke: #9467bd; stroke-width: 1.5; stroke-linecap: square"/>
   </g>
   <g id="line2d_20">
    <path d="M 69.218182 152.963936 
L 85.237321 147.248205 
L 101.256459 115.191652 
L 117.275598 121.007301 
L 133.294737 174.802916 
L 149.313876 187.054712 
L 165.333014 182.171779 
L 181.352153 180.39429 
L 197.371292 151.387651 
L 213.390431 147.492091 
L 229.409569 147.15627 
L 245.428708 142.924844 
L 261.447847 143.955555 
L 277.466986 147.378659 
L 293.486124 146.707386 
L 309.505263 147.124369 
L 325.524402 140.375377 
L 341.543541 145.807892 
L 357.562679 170.907279 
L 373.581818 165.584158 
" clip-path="url(#p2af9b15bd3)" style="fill: none; stroke: #8c564b; stroke-width: 1.5; stroke-linecap: square"/>
   </g>
   <g id="line2d_21">
    <path d="M 69.218182 145.744634 
L 85.237321 132.30742 
L 101.256459 98.153246 
L 117.275598 92.631338 
L 133.294737 138.420668 
L 149.313876 149.376977 
L 165.333014 141.663032 
L 181.352153 143.842148 
L 197.371292 116.380021 
L 213.390431 135.942655 
L 229.409569 138.587766 
L 245.428708 130.172039 
L 261.447847 134.089912 
L 277.466986 137.411221 
L 293.486124 135.502041 
L 309.505263 138.66184 
L 325.524402 133.294356 
L 341.543541 144.265198 
L 357.562679 155.198546 
L 373.581818 148.017645 
" clip-path="url(#p2af9b15bd3)" style="fill: none; stroke: #e377c2; stroke-width: 1.5; stroke-linecap: square"/>
   </g>
   <g id="line2d_22">
    <path d="M 69.218182 141.03854 
L 85.237321 132.30742 
L 101.256459 98.153246 
L 117.275598 92.631338 
L 133.294737 138.420668 
L 149.313876 149.376977 
L 165.333014 141.663032 
L 181.352153 143.842148 
L 197.371292 116.380021 
L 213.390431 135.942655 
L 229.409569 138.587766 
L 245.428708 130.172039 
L 261.447847 134.089912 
L 277.466986 137.411221 
L 293.486124 135.502041 
L 309.505263 138.66184 
L 325.524402 133.294356 
L 341.543541 144.265198 
L 357.562679 155.198546 
L 373.581818 148.017645 
" clip-path="url(#p2af9b15bd3)" style="fill: none; stroke: #7f7f7f; stroke-width: 1.5; stroke-linecap: square"/>
   </g>
   <g id="line2d_23">
    <path d="M 69.218182 117.275373 
L 85.237321 112.967251 
L 101.256459 94.448247 
L 117.275598 89.787176 
L 133.294737 136.799637 
L 149.313876 149.376977 
L 165.333014 141.663032 
L 181.352153 143.842148 
L 197.371292 116.380021 
L 213.390431 135.942655 
L 229.409569 138.587766 
L 245.428708 130.172039 
L 261.447847 134.089912 
L 277.466986 128.363415 
L 293.486124 111.578175 
L 309.505263 108.616161 
L 325.524402 99.840524 
L 341.543541 97.352345 
L 357.562679 115.289423 
L 373.581818 105.881304 
" clip-path="url(#p2af9b15bd3)" style="fill: none; stroke: #bcbd22; stroke-width: 1.5; stroke-linecap: square"/>
   </g>
   <g id="line2d_24">
    <path d="M 69.218182 112.024968 
L 85.237321 112.967251 
L 101.256459 94.448247 
L 117.275598 89.787176 
L 133.294737 136.799637 
L 149.313876 149.376977 
L 165.333014 141.663032 
L 181.352153 143.842148 
L 197.371292 116.380021 
L 213.390431 135.942655 
L 229.409569 138.587766 
L 245.428708 130.172039 
L 261.447847 134.089912 
L 277.466986 128.363415 
L 293.486124 111.578175 
L 309.505263 108.616161 
L 325.524402 99.840524 
L 341.543541 96.827175 
L 357.562679 112.126581 
L 373.581818 104.446829 
" clip-path="url(#p2af9b15bd3)" style="fill: none; stroke: #17becf; stroke-width: 1.5; stroke-linecap: square"/>
   </g>
   <g id="line2d_25">
    <path d="M 69.218182 109.696645 
L 85.237321 109.732016 
L 101.256459 94.448247 
L 117.275598 89.787176 
L 133.294737 136.799637 
L 149.313876 149.376977 
L 165.333014 141.663032 
L 181.352153 143.842148 
L 197.371292 116.380021 
L 213.390431 135.942655 
L 229.409569 135.341674 
L 245.428708 123.54924 
L 261.447847 121.933413 
L 277.466986 127.7114 
L 293.486124 103.357957 
L 309.505263 104.127214 
L 325.524402 99.840524 
L 341.543541 96.827175 
L 357.562679 111.380649 
L 373.581818 104.446829 
" clip-path="url(#p2af9b15bd3)" style="fill: none; stroke: #1f77b4; stroke-width: 1.5; stroke-linecap: square"/>
   </g>
   <g id="line2d_26">
    <path d="M 69.218182 109.696645 
L 85.237321 109.732016 
L 101.256459 94.448247 
L 117.275598 82.175654 
L 133.294737 136.799637 
L 149.313876 134.638613 
L 165.333014 123.372386 
L 181.352153 124.251703 
L 197.371292 95.672056 
L 213.390431 124.967667 
L 229.409569 100.295964 
L 245.428708 117.160101 
L 261.447847 114.110094 
L 277.466986 122.305362 
L 293.486124 92.9153 
L 309.505263 102.431203 
L 325.524402 99.840524 
L 341.543541 94.426576 
L 357.562679 97.129044 
L 373.581818 98.249693 
" clip-path="url(#p2af9b15bd3)" style="fill: none; stroke: #ff7f0e; stroke-width: 1.5; stroke-linecap: square"/>
   </g>
   <g id="line2d_27">
    <path d="M 69.218182 109.696645 
L 85.237321 109.732016 
L 101.256459 94.448247 
L 117.275598 82.175654 
L 133.294737 126.954657 
L 149.313876 134.638613 
L 165.333014 123.372386 
L 181.352153 124.251703 
L 197.371292 95.672056 
L 213.390431 124.967667 
L 229.409569 100.295964 
L 245.428708 112.344257 
L 261.447847 102.135774 
L 277.466986 107.797352 
L 293.486124 92.080247 
L 309.505263 102.431203 
L 325.524402 94.012903 
L 341.543541 83.728867 
L 357.562679 97.129044 
L 373.581818 94.716739 
" clip-path="url(#p2af9b15bd3)" style="fill: none; stroke: #2ca02c; stroke-width: 1.5; stroke-linecap: square"/>
   </g>
   <g id="line2d_28">
    <path d="M 69.218182 84.743616 
L 85.237321 94.752285 
L 101.256459 77.631204 
L 117.275598 60.8246 
L 133.294737 106.012083 
L 149.313876 118.02481 
L 165.333014 117.216301 
L 181.352153 112.93454 
L 197.371292 91.934902 
L 213.390431 124.967667 
L 229.409569 96.097426 
L 245.428708 104.174419 
L 261.447847 98.379347 
L 277.466986 85.72457 
L 293.486124 78.498581 
L 309.505263 88.109711 
L 325.524402 94.012903 
L 341.543541 83.728867 
L 357.562679 97.129044 
L 373.581818 94.716739 
" clip-path="url(#p2af9b15bd3)" style="fill: none; stroke: #d62728; stroke-width: 1.5; stroke-linecap: square"/>
   </g>
   <g id="line2d_29">
    <path d="M 69.218182 82.931033 
L 85.237321 91.152277 
L 101.256459 77.258326 
L 117.275598 53.495471 
L 133.294737 87.082058 
L 149.313876 85.160993 
L 165.333014 78.426141 
L 181.352153 85.421625 
L 197.371292 82.686174 
L 213.390431 118.199272 
L 229.409569 96.097426 
L 245.428708 104.174419 
L 261.447847 98.379347 
L 277.466986 81.431796 
L 293.486124 78.498581 
L 309.505263 88.109711 
L 325.524402 94.012903 
L 341.543541 83.728867 
L 357.562679 97.129044 
L 373.581818 94.716739 
" clip-path="url(#p2af9b15bd3)" style="fill: none; stroke: #9467bd; stroke-width: 1.5; stroke-linecap: square"/>
   </g>
   <g id="line2d_30">
    <path d="M 69.218182 74.335835 
L 85.237321 79.225628 
L 101.256459 65.903764 
L 117.275598 47.341231 
L 133.294737 87.082058 
L 149.313876 85.160993 
L 165.333014 78.426141 
L 181.352153 85.421625 
L 197.371292 82.686174 
L 213.390431 118.199272 
L 229.409569 96.097426 
L 245.428708 104.174419 
L 261.447847 98.379347 
L 277.466986 81.431796 
L 293.486124 78.498581 
L 309.505263 88.109711 
L 325.524402 91.454159 
L 341.543541 83.728867 
L 357.562679 97.129044 
L 373.581818 94.716739 
" clip-path="url(#p2af9b15bd3)" style="fill: none; stroke: #8c564b; stroke-width: 1.5; stroke-linecap: square"/>
   </g>
   <g id="line2d_31">
    <path d="M 69.218182 56.946795 
L 85.237321 59.735349 
L 101.256459 45.953832 
L 117.275598 45.826082 
L 133.294737 43.36035 
L 149.313876 42.678855 
L 165.333014 40.074661 
L 181.352153 43.262394 
L 197.371292 37.951097 
L 213.390431 53.169849 
L 229.409569 48.763058 
L 245.428708 47.022474 
L 261.447847 55.055385 
L 277.466986 52.529945 
L 293.486124 53.35534 
L 309.505263 63.45097 
L 325.524402 71.59329 
L 341.543541 62.525089 
L 357.562679 68.171354 
L 373.581818 73.077368 
" clip-path="url(#p2af9b15bd3)" style="fill: none; stroke: #e377c2; stroke-width: 1.5; stroke-linecap: square"/>
   </g>
   <g id="line2d_32">
    <path d="M 69.218182 38.113058 
L 85.237321 34.725649 
L 101.256459 37.778829 
L 117.275598 45.826082 
L 133.294737 42.264947 
L 149.313876 41.215238 
L 165.333014 37.580772 
L 181.352153 42.010877 
L 197.371292 37.951097 
L 213.390431 42.116112 
L 229.409569 39.585158 
L 245.428708 39.796923 
L 261.447847 55.055385 
L 277.466986 47.33747 
L 293.486124 52.419062 
L 309.505263 61.325829 
L 325.524402 55.707244 
L 341.543541 47.643688 
L 357.562679 43.724387 
L 373.581818 48.27998 
" clip-path="url(#p2af9b15bd3)" style="fill: none; stroke: #7f7f7f; stroke-width: 1.5; stroke-linecap: square"/>
   </g>
   <g id="line2d_33">
    <path d="M 69.218182 34.984658 
L 85.237321 34.725649 
L 101.256459 37.778829 
L 117.275598 45.826082 
L 133.294737 39.663231 
L 149.313876 39.173471 
L 165.333014 34.558362 
L 181.352153 34.116253 
L 197.371292 37.951097 
L 213.390431 33.899959 
L 229.409569 38.880047 
L 245.428708 39.0432 
L 261.447847 44.074251 
L 277.466986 37.22093 
L 293.486124 38.239443 
L 309.505263 44.041543 
L 325.524402 39.138509 
L 341.543541 38.496401 
L 357.562679 38.819165 
L 373.581818 36.61608 
" clip-path="url(#p2af9b15bd3)" style="fill: none; stroke: #bcbd22; stroke-width: 1.5; stroke-linecap: square"/>
   </g>
   <g id="line2d_34">
    <path d="M 69.218182 33.84 
L 85.237321 33.84 
L 101.256459 33.84 
L 117.275598 33.84 
L 133.294737 33.84 
L 149.313876 33.84 
L 165.333014 33.84 
L 181.352153 33.84 
L 197.371292 33.84 
L 213.390431 33.84 
L 229.409569 33.84 
L 245.428708 33.84 
L 261.447847 33.84 
L 277.466986 33.84 
L 293.486124 33.84 
L 309.505263 33.84 
L 325.524402 33.84 
L 341.543541 33.84 
L 357.562679 33.84 
L 373.581818 33.84 
" clip-path="url(#p2af9b15bd3)" style="fill: none; stroke: #17becf; stroke-width: 1.5; stroke-linecap: square"/>
   </g>
   <g id="patch_3">
    <path d="M 54 192.24 
L 54 25.92 
" style="fill: none; stroke: #000000; stroke-width: 0.8; stroke-linejoin: miter; stroke-linecap: square"/>
   </g>
   <g id="patch_4">
    <path d="M 388.8 192.24 
L 388.8 25.92 
" style="fill: none; stroke: #000000; stroke-width: 0.8; stroke-linejoin: miter; stroke-linecap: square"/>
   </g>
   <g id="patch_5">
    <path d="M 54 192.24 
L 388.8 192.24 
" style="fill: none; stroke: #000000; stroke-width: 0.8; stroke-linejoin: miter; stroke-linecap: square"/>
   </g>
   <g id="patch_6">
    <path d="M 54 25.92 
L 388.8 25.92 
" style="fill: none; stroke: #000000; stroke-width: 0.8; stroke-linejoin: miter; stroke-linecap: square"/>
   </g>
   <g id="text_17">
    <!-- Portfolio weights -->
    <g transform="translate(171.459375 19.92) scale(0.12 -0.12)">
     <defs>
      <path id="DejaVuSans-66" d="M 2375 4863 
L 2375 4384 
L 1825 4384 
Q 1516 4384 1395 4259 
Q 1275 4134 1275 3809 
L 1275 3500 
L 2222 3500 
L 2222 3053 
L 1275 3053 
L 1275 0 
L 697 0 
L 697 3053 
L 147 3053 
L 147 3500 
L 697 3500 
L 697 3744 
Q 697 4328 969 4595 
Q 1241 4863 1831 4863 
L 2375 4863 
z
" transform="scale(0.015625)"/>
      <path id="DejaVuSans-77" d="M 269 3500 
L 844 3500 
L 1563 769 
L 2278 3500 
L 2956 3500 
L 3675 769 
L 4391 3500 
L 4966 3500 
L 4050 0 
L 3372 0 
L 2619 2869 
L 1863 0 
L 1184 0 
L 269 3500 
z
" transform="scale(0.015625)"/>
     </defs>
     <use xlink:href="#DejaVuSans-50"/>
     <use xlink:href="#DejaVuSans-6f" x="56.677734"/>
     <use xlink:href="#DejaVuSans-72" x="117.859375"/>
     <use xlink:href="#DejaVuSans-74" x="158.972656"/>
     <use xlink:href="#DejaVuSans-66" x="198.181641"/>
     <use xlink:href="#DejaVuSans-6f" x="233.386719"/>
     <use xlink:href="#DejaVuSans-6c" x="294.568359"/>
     <use xlink:href="#DejaVuSans-69" x="322.351562"/>
     <use xlink:href="#DejaVuSans-6f" x="350.134766"/>
     <use xlink:href="#DejaVuSans-20" x="411.316406"/>
     <use xlink:href="#DejaVuSans-77" x="443.103516"/>
     <use xlink:href="#DejaVuSans-65" x="524.890625"/>
     <use xlink:href="#DejaVuSans-69" x="586.414062"/>
     <use xlink:href="#DejaVuSans-67" x="614.197266"/>
     <use xlink:href="#DejaVuSans-68" x="677.673828"/>
     <use xlink:href="#DejaVuSans-74" x="741.052734"/>
     <use xlink:href="#DejaVuSans-73" x="780.261719"/>
    </g>
   </g>
   <g id="legend_1">
    <g id="patch_7">
     <path d="M 395.8 257.36125 
L 453.357813 257.36125 
Q 455.357813 257.36125 455.357813 255.36125 
L 455.357813 -37.20125 
Q 455.357813 -39.20125 453.357813 -39.20125 
L 395.8 -39.20125 
Q 393.8 -39.20125 393.8 -37.20125 
L 393.8 255.36125 
Q 393.8 257.36125 395.8 257.36125 
z
" style="fill: #ffffff; opacity: 0.8; stroke: #cccccc; stroke-linejoin: miter"/>
    </g>
    <g id="patch_8">
     <path d="M 397.8 -27.602813 
L 417.8 -27.602813 
L 417.8 -34.602813 
L 397.8 -34.602813 
z
" style="fill: #1f77b4; stroke: #1f77b4; stroke-linejoin: miter"/>
    </g>
    <g id="text_18">
     <!-- F -->
     <g transform="translate(425.8 -27.602813) scale(0.1 -0.1)">
      <defs>
       <path id="DejaVuSans-46" d="M 628 4666 
L 3309 4666 
L 3309 4134 
L 1259 4134 
L 1259 2759 
L 3109 2759 
L 3109 2228 
L 1259 2228 
L 1259 0 
L 628 0 
L 628 4666 
z
" transform="scale(0.015625)"/>
      </defs>
      <use xlink:href="#DejaVuSans-46"/>
     </g>
    </g>
    <g id="patch_9">
     <path d="M 397.8 -12.924688 
L 417.8 -12.924688 
L 417.8 -19.924688 
L 397.8 -19.924688 
z
" style="fill: #ff7f0e; stroke: #ff7f0e; stroke-linejoin: miter"/>
    </g>
    <g id="text_19">
     <!-- CAT -->
     <g transform="translate(425.8 -12.924688) scale(0.1 -0.1)">
      <defs>
       <path id="DejaVuSans-43" d="M 4122 4306 
L 4122 3641 
Q 3803 3938 3442 4084 
Q 3081 4231 2675 4231 
Q 1875 4231 1450 3742 
Q 1025 3253 1025 2328 
Q 1025 1406 1450 917 
Q 1875 428 2675 428 
Q 3081 428 3442 575 
Q 3803 722 4122 1019 
L 4122 359 
Q 3791 134 3420 21 
Q 3050 -91 2638 -91 
Q 1578 -91 968 557 
Q 359 1206 359 2328 
Q 359 3453 968 4101 
Q 1578 4750 2638 4750 
Q 3056 4750 3426 4639 
Q 3797 4528 4122 4306 
z
" transform="scale(0.015625)"/>
       <path id="DejaVuSans-41" d="M 2188 4044 
L 1331 1722 
L 3047 1722 
L 2188 4044 
z
M 1831 4666 
L 2547 4666 
L 4325 0 
L 3669 0 
L 3244 1197 
L 1141 1197 
L 716 0 
L 50 0 
L 1831 4666 
z
" transform="scale(0.015625)"/>
       <path id="DejaVuSans-54" d="M -19 4666 
L 3928 4666 
L 3928 4134 
L 2272 4134 
L 2272 0 
L 1638 0 
L 1638 4134 
L -19 4134 
L -19 4666 
z
" transform="scale(0.015625)"/>
      </defs>
      <use xlink:href="#DejaVuSans-43"/>
      <use xlink:href="#DejaVuSans-41" x="69.824219"/>
      <use xlink:href="#DejaVuSans-54" x="130.482422"/>
     </g>
    </g>
    <g id="patch_10">
     <path d="M 397.8 1.753437 
L 417.8 1.753437 
L 417.8 -5.246563 
L 397.8 -5.246563 
z
" style="fill: #2ca02c; stroke: #2ca02c; stroke-linejoin: miter"/>
    </g>
    <g id="text_20">
     <!-- DIS -->
     <g transform="translate(425.8 1.753437) scale(0.1 -0.1)">
      <defs>
       <path id="DejaVuSans-44" d="M 1259 4147 
L 1259 519 
L 2022 519 
Q 2988 519 3436 956 
Q 3884 1394 3884 2338 
Q 3884 3275 3436 3711 
Q 2988 4147 2022 4147 
L 1259 4147 
z
M 628 4666 
L 1925 4666 
Q 3281 4666 3915 4102 
Q 4550 3538 4550 2338 
Q 4550 1131 3912 565 
Q 3275 0 1925 0 
L 628 0 
L 628 4666 
z
" transform="scale(0.015625)"/>
       <path id="DejaVuSans-49" d="M 628 4666 
L 1259 4666 
L 1259 0 
L 628 0 
L 628 4666 
z
" transform="scale(0.015625)"/>
       <path id="DejaVuSans-53" d="M 3425 4513 
L 3425 3897 
Q 3066 4069 2747 4153 
Q 2428 4238 2131 4238 
Q 1616 4238 1336 4038 
Q 1056 3838 1056 3469 
Q 1056 3159 1242 3001 
Q 1428 2844 1947 2747 
L 2328 2669 
Q 3034 2534 3370 2195 
Q 3706 1856 3706 1288 
Q 3706 609 3251 259 
Q 2797 -91 1919 -91 
Q 1588 -91 1214 -16 
Q 841 59 441 206 
L 441 856 
Q 825 641 1194 531 
Q 1563 422 1919 422 
Q 2459 422 2753 634 
Q 3047 847 3047 1241 
Q 3047 1584 2836 1778 
Q 2625 1972 2144 2069 
L 1759 2144 
Q 1053 2284 737 2584 
Q 422 2884 422 3419 
Q 422 4038 858 4394 
Q 1294 4750 2059 4750 
Q 2388 4750 2728 4690 
Q 3069 4631 3425 4513 
z
" transform="scale(0.015625)"/>
      </defs>
      <use xlink:href="#DejaVuSans-44"/>
      <use xlink:href="#DejaVuSans-49" x="77.001953"/>
      <use xlink:href="#DejaVuSans-53" x="106.494141"/>
     </g>
    </g>
    <g id="patch_11">
     <path d="M 397.8 16.431562 
L 417.8 16.431562 
L 417.8 9.431562 
L 397.8 9.431562 
z
" style="fill: #d62728; stroke: #d62728; stroke-linejoin: miter"/>
    </g>
    <g id="text_21">
     <!-- MCD -->
     <g transform="translate(425.8 16.431562) scale(0.1 -0.1)">
      <defs>
       <path id="DejaVuSans-4d" d="M 628 4666 
L 1569 4666 
L 2759 1491 
L 3956 4666 
L 4897 4666 
L 4897 0 
L 4281 0 
L 4281 4097 
L 3078 897 
L 2444 897 
L 1241 4097 
L 1241 0 
L 628 0 
L 628 4666 
z
" transform="scale(0.015625)"/>
      </defs>
      <use xlink:href="#DejaVuSans-4d"/>
      <use xlink:href="#DejaVuSans-43" x="86.279297"/>
      <use xlink:href="#DejaVuSans-44" x="156.103516"/>
     </g>
    </g>
    <g id="patch_12">
     <path d="M 397.8 31.109688 
L 417.8 31.109688 
L 417.8 24.109688 
L 397.8 24.109688 
z
" style="fill: #9467bd; stroke: #9467bd; stroke-linejoin: miter"/>
    </g>
    <g id="text_22">
     <!-- KO -->
     <g transform="translate(425.8 31.109688) scale(0.1 -0.1)">
      <defs>
       <path id="DejaVuSans-4b" d="M 628 4666 
L 1259 4666 
L 1259 2694 
L 3353 4666 
L 4166 4666 
L 1850 2491 
L 4331 0 
L 3500 0 
L 1259 2247 
L 1259 0 
L 628 0 
L 628 4666 
z
" transform="scale(0.015625)"/>
       <path id="DejaVuSans-4f" d="M 2522 4238 
Q 1834 4238 1429 3725 
Q 1025 3213 1025 2328 
Q 1025 1447 1429 934 
Q 1834 422 2522 422 
Q 3209 422 3611 934 
Q 4013 1447 4013 2328 
Q 4013 3213 3611 3725 
Q 3209 4238 2522 4238 
z
M 2522 4750 
Q 3503 4750 4090 4092 
Q 4678 3434 4678 2328 
Q 4678 1225 4090 567 
Q 3503 -91 2522 -91 
Q 1538 -91 948 565 
Q 359 1222 359 2328 
Q 359 3434 948 4092 
Q 1538 4750 2522 4750 
z
" transform="scale(0.015625)"/>
      </defs>
      <use xlink:href="#DejaVuSans-4b"/>
      <use xlink:href="#DejaVuSans-4f" x="60.076172"/>
     </g>
    </g>
    <g id="patch_13">
     <path d="M 397.8 45.787812 
L 417.8 45.787812 
L 417.8 38.787812 
L 397.8 38.787812 
z
" style="fill: #8c564b; stroke: #8c564b; stroke-linejoin: miter"/>
    </g>
    <g id="text_23">
     <!-- PEP -->
     <g transform="translate(425.8 45.787812) scale(0.1 -0.1)">
      <defs>
       <path id="DejaVuSans-45" d="M 628 4666 
L 3578 4666 
L 3578 4134 
L 1259 4134 
L 1259 2753 
L 3481 2753 
L 3481 2222 
L 1259 2222 
L 1259 531 
L 3634 531 
L 3634 0 
L 628 0 
L 628 4666 
z
" transform="scale(0.015625)"/>
      </defs>
      <use xlink:href="#DejaVuSans-50"/>
      <use xlink:href="#DejaVuSans-45" x="60.302734"/>
      <use xlink:href="#DejaVuSans-50" x="123.486328"/>
     </g>
    </g>
    <g id="patch_14">
     <path d="M 397.8 60.465937 
L 417.8 60.465937 
L 417.8 53.465937 
L 397.8 53.465937 
z
" style="fill: #e377c2; stroke: #e377c2; stroke-linejoin: miter"/>
    </g>
    <g id="text_24">
     <!-- WMT -->
     <g transform="translate(425.8 60.465937) scale(0.1 -0.1)">
      <use xlink:href="#DejaVuSans-57"/>
      <use xlink:href="#DejaVuSans-4d" x="98.876953"/>
      <use xlink:href="#DejaVuSans-54" x="185.15625"/>
     </g>
    </g>
    <g id="patch_15">
     <path d="M 397.8 75.144062 
L 417.8 75.144062 
L 417.8 68.144062 
L 397.8 68.144062 
z
" style="fill: #7f7f7f; stroke: #7f7f7f; stroke-linejoin: miter"/>
    </g>
    <g id="text_25">
     <!-- C -->
     <g transform="translate(425.8 75.144062) scale(0.1 -0.1)">
      <use xlink:href="#DejaVuSans-43"/>
     </g>
    </g>
    <g id="patch_16">
     <path d="M 397.8 89.822187 
L 417.8 89.822187 
L 417.8 82.822187 
L 397.8 82.822187 
z
" style="fill: #bcbd22; stroke: #bcbd22; stroke-linejoin: miter"/>
    </g>
    <g id="text_26">
     <!-- WFC -->
     <g transform="translate(425.8 89.822187) scale(0.1 -0.1)">
      <use xlink:href="#DejaVuSans-57"/>
      <use xlink:href="#DejaVuSans-46" x="98.876953"/>
      <use xlink:href="#DejaVuSans-43" x="156.396484"/>
     </g>
    </g>
    <g id="patch_17">
     <path d="M 397.8 104.500312 
L 417.8 104.500312 
L 417.8 97.500312 
L 397.8 97.500312 
z
" style="fill: #17becf; stroke: #17becf; stroke-linejoin: miter"/>
    </g>
    <g id="text_27">
     <!-- JPM -->
     <g transform="translate(425.8 104.500312) scale(0.1 -0.1)">
      <defs>
       <path id="DejaVuSans-4a" d="M 628 4666 
L 1259 4666 
L 1259 325 
Q 1259 -519 939 -900 
Q 619 -1281 -91 -1281 
L -331 -1281 
L -331 -750 
L -134 -750 
Q 284 -750 456 -515 
Q 628 -281 628 325 
L 628 4666 
z
" transform="scale(0.015625)"/>
      </defs>
      <use xlink:href="#DejaVuSans-4a"/>
      <use xlink:href="#DejaVuSans-50" x="29.492188"/>
      <use xlink:href="#DejaVuSans-4d" x="89.794922"/>
     </g>
    </g>
    <g id="patch_18">
     <path d="M 397.8 119.178437 
L 417.8 119.178437 
L 417.8 112.178437 
L 397.8 112.178437 
z
" style="fill: #1f77b4; stroke: #1f77b4; stroke-linejoin: miter"/>
    </g>
    <g id="text_28">
     <!-- AAPL -->
     <g transform="translate(425.8 119.178437) scale(0.1 -0.1)">
      <defs>
       <path id="DejaVuSans-4c" d="M 628 4666 
L 1259 4666 
L 1259 531 
L 3531 531 
L 3531 0 
L 628 0 
L 628 4666 
z
" transform="scale(0.015625)"/>
      </defs>
      <use xlink:href="#DejaVuSans-41"/>
      <use xlink:href="#DejaVuSans-41" x="71.158203"/>
      <use xlink:href="#DejaVuSans-50" x="139.566406"/>
      <use xlink:href="#DejaVuSans-4c" x="199.869141"/>
     </g>
    </g>
    <g id="patch_19">
     <path d="M 397.8 133.856562 
L 417.8 133.856562 
L 417.8 126.856562 
L 397.8 126.856562 
z
" style="fill: #ff7f0e; stroke: #ff7f0e; stroke-linejoin: miter"/>
    </g>
    <g id="text_29">
     <!-- IBM -->
     <g transform="translate(425.8 133.856562) scale(0.1 -0.1)">
      <defs>
       <path id="DejaVuSans-42" d="M 1259 2228 
L 1259 519 
L 2272 519 
Q 2781 519 3026 730 
Q 3272 941 3272 1375 
Q 3272 1813 3026 2020 
Q 2781 2228 2272 2228 
L 1259 2228 
z
M 1259 4147 
L 1259 2741 
L 2194 2741 
Q 2656 2741 2882 2914 
Q 3109 3088 3109 3444 
Q 3109 3797 2882 3972 
Q 2656 4147 2194 4147 
L 1259 4147 
z
M 628 4666 
L 2241 4666 
Q 2963 4666 3353 4366 
Q 3744 4066 3744 3513 
Q 3744 3084 3544 2831 
Q 3344 2578 2956 2516 
Q 3422 2416 3680 2098 
Q 3938 1781 3938 1306 
Q 3938 681 3513 340 
Q 3088 0 2303 0 
L 628 0 
L 628 4666 
z
" transform="scale(0.015625)"/>
      </defs>
      <use xlink:href="#DejaVuSans-49"/>
      <use xlink:href="#DejaVuSans-42" x="29.492188"/>
      <use xlink:href="#DejaVuSans-4d" x="98.095703"/>
     </g>
    </g>
    <g id="patch_20">
     <path d="M 397.8 148.534687 
L 417.8 148.534687 
L 417.8 141.534687 
L 397.8 141.534687 
z
" style="fill: #2ca02c; stroke: #2ca02c; stroke-linejoin: miter"/>
    </g>
    <g id="text_30">
     <!-- PFE -->
     <g transform="translate(425.8 148.534687) scale(0.1 -0.1)">
      <use xlink:href="#DejaVuSans-50"/>
      <use xlink:href="#DejaVuSans-46" x="60.302734"/>
      <use xlink:href="#DejaVuSans-45" x="117.822266"/>
     </g>
    </g>
    <g id="patch_21">
     <path d="M 397.8 163.212812 
L 417.8 163.212812 
L 417.8 156.212812 
L 397.8 156.212812 
z
" style="fill: #d62728; stroke: #d62728; stroke-linejoin: miter"/>
    </g>
    <g id="text_31">
     <!-- JNJ -->
     <g transform="translate(425.8 163.212812) scale(0.1 -0.1)">
      <defs>
       <path id="DejaVuSans-4e" d="M 628 4666 
L 1478 4666 
L 3547 763 
L 3547 4666 
L 4159 4666 
L 4159 0 
L 3309 0 
L 1241 3903 
L 1241 0 
L 628 0 
L 628 4666 
z
" transform="scale(0.015625)"/>
      </defs>
      <use xlink:href="#DejaVuSans-4a"/>
      <use xlink:href="#DejaVuSans-4e" x="29.492188"/>
      <use xlink:href="#DejaVuSans-4a" x="104.296875"/>
     </g>
    </g>
    <g id="patch_22">
     <path d="M 397.8 177.890937 
L 417.8 177.890937 
L 417.8 170.890937 
L 397.8 170.890937 
z
" style="fill: #9467bd; stroke: #9467bd; stroke-linejoin: miter"/>
    </g>
    <g id="text_32">
     <!-- XOM -->
     <g transform="translate(425.8 177.890937) scale(0.1 -0.1)">
      <defs>
       <path id="DejaVuSans-58" d="M 403 4666 
L 1081 4666 
L 2241 2931 
L 3406 4666 
L 4084 4666 
L 2584 2425 
L 4184 0 
L 3506 0 
L 2194 1984 
L 872 0 
L 191 0 
L 1856 2491 
L 403 4666 
z
" transform="scale(0.015625)"/>
      </defs>
      <use xlink:href="#DejaVuSans-58"/>
      <use xlink:href="#DejaVuSans-4f" x="62.130859"/>
      <use xlink:href="#DejaVuSans-4d" x="140.841797"/>
     </g>
    </g>
    <g id="patch_23">
     <path d="M 397.8 192.569062 
L 417.8 192.569062 
L 417.8 185.569062 
L 397.8 185.569062 
z
" style="fill: #8c564b; stroke: #8c564b; stroke-linejoin: miter"/>
    </g>
    <g id="text_33">
     <!-- MRO -->
     <g transform="translate(425.8 192.569062) scale(0.1 -0.1)">
      <use xlink:href="#DejaVuSans-4d"/>
      <use xlink:href="#DejaVuSans-52" x="86.279297"/>
      <use xlink:href="#DejaVuSans-4f" x="155.761719"/>
     </g>
    </g>
    <g id="patch_24">
     <path d="M 397.8 207.247187 
L 417.8 207.247187 
L 417.8 200.247187 
L 397.8 200.247187 
z
" style="fill: #e377c2; stroke: #e377c2; stroke-linejoin: miter"/>
    </g>
    <g id="text_34">
     <!-- ED -->
     <g transform="translate(425.8 207.247187) scale(0.1 -0.1)">
      <use xlink:href="#DejaVuSans-45"/>
      <use xlink:href="#DejaVuSans-44" x="63.183594"/>
     </g>
    </g>
    <g id="patch_25">
     <path d="M 397.8 221.925312 
L 417.8 221.925312 
L 417.8 214.925312 
L 397.8 214.925312 
z
" style="fill: #7f7f7f; stroke: #7f7f7f; stroke-linejoin: miter"/>
    </g>
    <g id="text_35">
     <!-- T -->
     <g transform="translate(425.8 221.925312) scale(0.1 -0.1)">
      <use xlink:href="#DejaVuSans-54"/>
     </g>
    </g>
    <g id="patch_26">
     <path d="M 397.8 236.603437 
L 417.8 236.603437 
L 417.8 229.603437 
L 397.8 229.603437 
z
" style="fill: #bcbd22; stroke: #bcbd22; stroke-linejoin: miter"/>
    </g>
    <g id="text_36">
     <!-- VZ -->
     <g transform="translate(425.8 236.603437) scale(0.1 -0.1)">
      <defs>
       <path id="DejaVuSans-56" d="M 1831 0 
L 50 4666 
L 709 4666 
L 2188 738 
L 3669 4666 
L 4325 4666 
L 2547 0 
L 1831 0 
z
" transform="scale(0.015625)"/>
       <path id="DejaVuSans-5a" d="M 359 4666 
L 4025 4666 
L 4025 4184 
L 1075 531 
L 4097 531 
L 4097 0 
L 288 0 
L 288 481 
L 3238 4134 
L 359 4134 
L 359 4666 
z
" transform="scale(0.015625)"/>
      </defs>
      <use xlink:href="#DejaVuSans-56"/>
      <use xlink:href="#DejaVuSans-5a" x="68.408203"/>
     </g>
    </g>
    <g id="patch_27">
     <path d="M 397.8 251.281562 
L 417.8 251.281562 
L 417.8 244.281562 
L 397.8 244.281562 
z
" style="fill: #17becf; stroke: #17becf; stroke-linejoin: miter"/>
    </g>
    <g id="text_37">
     <!-- NEM -->
     <g transform="translate(425.8 251.281562) scale(0.1 -0.1)">
      <use xlink:href="#DejaVuSans-4e"/>
      <use xlink:href="#DejaVuSans-45" x="74.804688"/>
      <use xlink:href="#DejaVuSans-4d" x="137.988281"/>
     </g>
    </g>
   </g>
  </g>
 </g>
 <defs>
  <clipPath id="p2af9b15bd3">
   <rect x="54" y="25.92" width="334.8" height="166.32"/>
  </clipPath>
 </defs>
</svg>
